G04 start of page 6 for group -4063 idx -4063 *
G04 Title: (unknown), componentmask *
G04 Creator: pcb 20140316 *
G04 CreationDate: Tue 26 Feb 2019 04:37:41 AM GMT UTC *
G04 For: railfan *
G04 Format: Gerber/RS-274X *
G04 PCB-Dimensions (mil): 1600.00 1600.00 *
G04 PCB-Coordinate-Origin: lower left *
%MOIN*%
%FSLAX25Y25*%
%LNTOPMASK*%
%ADD52R,0.0180X0.0180*%
%ADD51R,0.0572X0.0572*%
%ADD50R,0.0300X0.0300*%
%ADD49C,0.0600*%
%ADD48R,0.0532X0.0532*%
%ADD47R,0.0296X0.0296*%
%ADD46C,0.0860*%
%ADD45C,0.0660*%
%ADD44C,0.0001*%
%ADD43C,0.2997*%
G54D43*X143000Y17000D03*
G54D44*G36*
X26200Y76300D02*Y67700D01*
X34800D01*
Y76300D01*
X26200D01*
G37*
G54D43*X17000Y17000D03*
G54D44*G36*
X55200Y75300D02*Y68700D01*
X61800D01*
Y75300D01*
X55200D01*
G37*
G54D45*X59500Y62000D03*
X58500Y52000D03*
G54D46*X30500Y62000D03*
Y52000D03*
Y42000D03*
G54D43*X17000Y143000D03*
G54D44*G36*
X55200Y121300D02*Y114700D01*
X61800D01*
Y121300D01*
X55200D01*
G37*
G54D43*X143000Y143000D03*
G54D45*X59500Y108000D03*
X58500Y98000D03*
G54D44*G36*
X26300Y122500D02*Y113900D01*
X34900D01*
Y122500D01*
X26300D01*
G37*
G54D46*X30600Y108200D03*
Y98200D03*
Y88200D03*
G54D47*X138630Y96594D02*X142370D01*
G54D48*X154575Y91476D02*X156937D01*
G54D47*X138630Y100531D02*X142370D01*
X138630Y104469D02*X142370D01*
X138630Y108406D02*X142370D01*
G54D48*X154575Y113524D02*X156937D01*
G54D47*X138630Y50394D02*X142370D01*
X138630Y54331D02*X142370D01*
X138630Y58269D02*X142370D01*
X138630Y62206D02*X142370D01*
G54D48*X154575Y45276D02*X156937D01*
X154575Y67324D02*X156937D01*
G54D49*X57700Y86000D03*
G54D50*X59200Y87500D02*Y84500D01*
G54D49*X64500Y86000D03*
G54D50*X63000Y87500D02*Y84500D01*
G54D49*X58100Y40000D03*
G54D50*X59600Y41500D02*Y38500D01*
G54D49*X64900Y40000D03*
G54D50*X63400Y41500D02*Y38500D01*
G54D51*X93043Y71393D02*Y70607D01*
X85957Y71393D02*Y70607D01*
G54D52*X79255Y82094D02*X81554D01*
X79255Y80126D02*X81554D01*
X79952Y82094D02*X80952D01*
X79952Y80126D02*X80952D01*
G54D51*X102957Y71393D02*Y70607D01*
X110043Y71393D02*Y70607D01*
G54D52*X79255Y88000D02*X81554D01*
X79952D02*X80952D01*
X79255Y86032D02*X81554D01*
X79255Y84063D02*X81554D01*
X79952Y86032D02*X80952D01*
X79952Y84063D02*X80952D01*
X96350Y80126D02*X98649D01*
X96350Y82094D02*X98649D01*
X96952Y80126D02*X97952D01*
X96952Y82094D02*X97952D01*
X96350Y84063D02*X98649D01*
X96350Y86032D02*X98649D01*
X96350Y88000D02*X98649D01*
X96952Y84063D02*X97952D01*
X96952Y86032D02*X97952D01*
X96952Y88000D02*X97952D01*
G54D49*X109500Y105600D03*
G54D50*X108000Y107100D02*X111000D01*
G54D49*X119000Y105600D03*
G54D50*X117500Y107100D02*X120500D01*
G54D49*X109500Y112400D03*
G54D50*X108000Y110900D02*X111000D01*
G54D49*X92000Y112400D03*
G54D50*X90500Y110900D02*X93500D01*
G54D49*X119000Y112400D03*
G54D50*X117500Y110900D02*X120500D01*
G54D49*X92000Y105600D03*
G54D50*X90500Y107100D02*X93500D01*
G54D49*X82500Y105600D03*
G54D50*X81000Y107100D02*X84000D01*
G54D49*X82500Y112400D03*
G54D50*X81000Y110900D02*X84000D01*
M02*
