G04 start of page 10 for group -4015 idx -4015 *
G04 Title: (unknown), toppaste *
G04 Creator: pcb 20140316 *
G04 CreationDate: Tue 26 Feb 2019 04:37:41 AM GMT UTC *
G04 For: railfan *
G04 Format: Gerber/RS-274X *
G04 PCB-Dimensions (mil): 1600.00 1600.00 *
G04 PCB-Coordinate-Origin: lower left *
%MOIN*%
%FSLAX25Y25*%
%LNTOPPASTE*%
%ADD65R,0.0100X0.0100*%
%ADD64R,0.0472X0.0472*%
%ADD63R,0.0236X0.0236*%
%ADD62R,0.0512X0.0512*%
%ADD61R,0.0300X0.0300*%
%ADD60C,0.0600*%
G54D60*X58100Y40000D03*
G54D61*X59600Y41500D02*Y38500D01*
G54D60*X64900Y40000D03*
G54D61*X63400Y41500D02*Y38500D01*
G54D60*X57700Y86000D03*
G54D61*X59200Y87500D02*Y84500D01*
G54D60*X64500Y86000D03*
G54D61*X63000Y87500D02*Y84500D01*
G54D62*X93043Y71393D02*Y70607D01*
X85957Y71393D02*Y70607D01*
G54D63*X138630Y96594D02*X142370D01*
X138630Y100531D02*X142370D01*
X138630Y104469D02*X142370D01*
X138630Y108406D02*X142370D01*
G54D64*X154575Y91476D02*X156937D01*
X154575Y113524D02*X156937D01*
G54D63*X138630Y50394D02*X142370D01*
X138630Y54331D02*X142370D01*
X138630Y58269D02*X142370D01*
X138630Y62206D02*X142370D01*
G54D64*X154575Y45276D02*X156937D01*
X154575Y67324D02*X156937D01*
G54D65*X79952Y88000D02*X80952D01*
X79952Y86032D02*X80952D01*
X79952Y84063D02*X80952D01*
X79952Y82094D02*X80952D01*
X79952Y80126D02*X80952D01*
X96952D02*X97952D01*
X96952Y82094D02*X97952D01*
X96952Y84063D02*X97952D01*
X96952Y86032D02*X97952D01*
X96952Y88000D02*X97952D01*
G54D60*X109500Y105600D03*
G54D61*X108000Y107100D02*X111000D01*
G54D60*X109500Y112400D03*
G54D61*X108000Y110900D02*X111000D01*
G54D60*X92000Y105600D03*
G54D61*X90500Y107100D02*X93500D01*
G54D60*X92000Y112400D03*
G54D61*X90500Y110900D02*X93500D01*
G54D60*X119000Y105600D03*
G54D61*X117500Y107100D02*X120500D01*
G54D60*X119000Y112400D03*
G54D61*X117500Y110900D02*X120500D01*
G54D60*X82500Y105600D03*
G54D61*X81000Y107100D02*X84000D01*
G54D60*X82500Y112400D03*
G54D61*X81000Y110900D02*X84000D01*
G54D62*X102957Y71393D02*Y70607D01*
X110043Y71393D02*Y70607D01*
M02*
