G04 start of page 8 for group -4079 idx -4079 *
G04 Title: (unknown), topsilk *
G04 Creator: pcb 20140316 *
G04 CreationDate: Tue 26 Feb 2019 04:37:41 AM GMT UTC *
G04 For: railfan *
G04 Format: Gerber/RS-274X *
G04 PCB-Dimensions (mil): 1600.00 1600.00 *
G04 PCB-Coordinate-Origin: lower left *
%MOIN*%
%FSLAX25Y25*%
%LNTOPSILK*%
%ADD58C,0.0080*%
%ADD57C,0.0100*%
G54D57*X500Y500D02*X159500D01*
Y159500D01*
X500D01*
Y500D01*
X111500Y51000D02*Y2000D01*
X71500Y47000D02*X127500D01*
G54D58*X36500Y149000D02*X37500D01*
X37000D02*Y145000D01*
X36500D02*X37500D01*
X38700Y146500D02*Y145500D01*
Y146500D02*X39200Y147000D01*
X40200D01*
X40700Y146500D01*
Y145500D01*
X40200Y145000D02*X40700Y145500D01*
X39200Y145000D02*X40200D01*
X38700Y145500D02*X39200Y145000D01*
X41900Y147000D02*Y145500D01*
X42400Y145000D01*
X42900D01*
X43400Y145500D01*
Y147000D02*Y145500D01*
X43900Y145000D01*
X44400D01*
X44900Y145500D01*
Y147000D02*Y145500D01*
X47600Y147000D02*X48100Y146500D01*
X46600Y147000D02*X47600D01*
X46100Y146500D02*X46600Y147000D01*
X46100Y146500D02*Y145500D01*
X46600Y145000D01*
X48100Y147000D02*Y145500D01*
X48600Y145000D01*
X46600D02*X47600D01*
X48100Y145500D01*
X53600Y149000D02*X54100Y148500D01*
X52100Y149000D02*X53600D01*
X51600Y148500D02*X52100Y149000D01*
X51600Y148500D02*Y147500D01*
X52100Y147000D01*
X53600D01*
X54100Y146500D01*
Y145500D01*
X53600Y145000D02*X54100Y145500D01*
X52100Y145000D02*X53600D01*
X51600Y145500D02*X52100Y145000D01*
X55800Y147000D02*X57300D01*
X55300Y146500D02*X55800Y147000D01*
X55300Y146500D02*Y145500D01*
X55800Y145000D01*
X57300D01*
X60000Y147000D02*X60500Y146500D01*
X59000Y147000D02*X60000D01*
X58500Y146500D02*X59000Y147000D01*
X58500Y146500D02*Y145500D01*
X59000Y145000D01*
X60500Y147000D02*Y145500D01*
X61000Y145000D01*
X59000D02*X60000D01*
X60500Y145500D01*
X62200Y149000D02*Y145500D01*
X62700Y145000D01*
X64200D02*X65700D01*
X63700Y145500D02*X64200Y145000D01*
X63700Y146500D02*Y145500D01*
Y146500D02*X64200Y147000D01*
X65200D01*
X65700Y146500D01*
X63700Y146000D02*X65700D01*
Y146500D02*Y146000D01*
X68900Y149000D02*Y145000D01*
X68400D02*X68900Y145500D01*
X67400Y145000D02*X68400D01*
X66900Y145500D02*X67400Y145000D01*
X66900Y146500D02*Y145500D01*
Y146500D02*X67400Y147000D01*
X68400D01*
X68900Y146500D01*
X71900Y147200D02*X73400D01*
X71900Y145000D02*X73900D01*
X71900Y149000D02*Y145000D01*
Y149000D02*X73900D01*
X75600Y146500D02*Y145000D01*
Y146500D02*X76100Y147000D01*
X76600D01*
X77100Y146500D01*
Y145000D01*
X75100Y147000D02*X75600Y146500D01*
X79800Y147000D02*X80300Y146500D01*
X78800Y147000D02*X79800D01*
X78300Y146500D02*X78800Y147000D01*
X78300Y146500D02*Y145500D01*
X78800Y145000D01*
X79800D01*
X80300Y145500D01*
X78300Y144000D02*X78800Y143500D01*
X79800D01*
X80300Y144000D01*
Y147000D02*Y144000D01*
X81500Y148000D02*Y147900D01*
Y146500D02*Y145000D01*
X83000Y146500D02*Y145000D01*
Y146500D02*X83500Y147000D01*
X84000D01*
X84500Y146500D01*
Y145000D01*
X82500Y147000D02*X83000Y146500D01*
X86200Y145000D02*X87700D01*
X85700Y145500D02*X86200Y145000D01*
X85700Y146500D02*Y145500D01*
Y146500D02*X86200Y147000D01*
X87200D01*
X87700Y146500D01*
X85700Y146000D02*X87700D01*
Y146500D02*Y146000D01*
X89400Y145000D02*X90900D01*
X88900Y145500D02*X89400Y145000D01*
X88900Y146500D02*Y145500D01*
Y146500D02*X89400Y147000D01*
X90400D01*
X90900Y146500D01*
X88900Y146000D02*X90900D01*
Y146500D02*Y146000D01*
X92600Y146500D02*Y145000D01*
Y146500D02*X93100Y147000D01*
X94100D01*
X92100D02*X92600Y146500D01*
X95300Y148000D02*Y147900D01*
Y146500D02*Y145000D01*
X96800Y146500D02*Y145000D01*
Y146500D02*X97300Y147000D01*
X97800D01*
X98300Y146500D01*
Y145000D01*
X96300Y147000D02*X96800Y146500D01*
X101000Y147000D02*X101500Y146500D01*
X100000Y147000D02*X101000D01*
X99500Y146500D02*X100000Y147000D01*
X99500Y146500D02*Y145500D01*
X100000Y145000D01*
X101000D01*
X101500Y145500D01*
X99500Y144000D02*X100000Y143500D01*
X101000D01*
X101500Y144000D01*
Y147000D02*Y144000D01*
X36500Y155500D02*X37500D01*
X37000D02*Y151500D01*
X36500D02*X37500D01*
X38700Y155000D02*X39200Y155500D01*
X40700D01*
X41200Y155000D01*
Y154000D01*
X38700Y151500D02*X41200Y154000D01*
X38700Y151500D02*X41200D01*
X43100D02*X44400D01*
X42400Y152200D02*X43100Y151500D01*
X42400Y154800D02*Y152200D01*
Y154800D02*X43100Y155500D01*
X44400D01*
X45600Y153500D02*X47600D01*
X48800Y155500D02*Y151500D01*
Y155500D02*X50300Y153500D01*
X51800Y155500D01*
Y151500D01*
X53700D02*X55000D01*
X53000Y152200D02*X53700Y151500D01*
X53000Y154800D02*Y152200D01*
Y154800D02*X53700Y155500D01*
X55000D01*
X56700D02*Y151500D01*
X56200Y155500D02*X58200D01*
X58700Y155000D01*
Y154000D01*
X58200Y153500D02*X58700Y154000D01*
X56700Y153500D02*X58200D01*
X59900Y155000D02*X60400Y155500D01*
X61400D01*
X61900Y155000D01*
X61400Y151500D02*X61900Y152000D01*
X60400Y151500D02*X61400D01*
X59900Y152000D02*X60400Y151500D01*
Y153700D02*X61400D01*
X61900Y155000D02*Y154200D01*
Y153200D02*Y152000D01*
Y153200D02*X61400Y153700D01*
X61900Y154200D02*X61400Y153700D01*
X63100Y153000D02*X65100Y155500D01*
X63100Y153000D02*X65600D01*
X65100Y155500D02*Y151500D01*
X66800Y155000D02*X67300Y155500D01*
X68800D01*
X69300Y155000D01*
Y154000D01*
X66800Y151500D02*X69300Y154000D01*
X66800Y151500D02*X69300D01*
X71000D02*X73000Y155500D01*
X70500D02*X73000D01*
X76000Y153500D02*X77000Y151500D01*
X78000Y153500D02*X77000Y151500D01*
X79200Y154700D02*X80000Y155500D01*
Y151500D01*
X79200D02*X80700D01*
X81900D02*X82400D01*
X83600Y152000D02*X84100Y151500D01*
X83600Y155000D02*Y152000D01*
Y155000D02*X84100Y155500D01*
X85100D01*
X85600Y155000D01*
Y152000D01*
X85100Y151500D02*X85600Y152000D01*
X84100Y151500D02*X85100D01*
X83600Y152500D02*X85600Y154500D01*
X36500Y143000D02*Y139000D01*
Y140500D02*X37000Y141000D01*
X38000D01*
X38500Y140500D01*
Y139000D01*
X40200Y143000D02*Y139500D01*
X40700Y139000D01*
X39700Y141500D02*X40700D01*
X42200Y143000D02*Y139500D01*
X42700Y139000D01*
X41700Y141500D02*X42700D01*
X44200Y140500D02*Y137500D01*
X43700Y141000D02*X44200Y140500D01*
X44700Y141000D01*
X45700D01*
X46200Y140500D01*
Y139500D01*
X45700Y139000D02*X46200Y139500D01*
X44700Y139000D02*X45700D01*
X44200Y139500D02*X44700Y139000D01*
X47900D02*X49400D01*
X49900Y139500D01*
X49400Y140000D02*X49900Y139500D01*
X47900Y140000D02*X49400D01*
X47400Y140500D02*X47900Y140000D01*
X47400Y140500D02*X47900Y141000D01*
X49400D01*
X49900Y140500D01*
X47400Y139500D02*X47900Y139000D01*
X51100Y141500D02*X51600D01*
X51100Y140500D02*X51600D01*
X52800Y139500D02*X55800Y142500D01*
X57000Y139500D02*X60000Y142500D01*
X61200Y141000D02*Y139500D01*
X61700Y139000D01*
X62200D01*
X62700Y139500D01*
Y141000D02*Y139500D01*
X63200Y139000D01*
X63700D01*
X64200Y139500D01*
Y141000D02*Y139500D01*
X65400Y141000D02*Y139500D01*
X65900Y139000D01*
X66400D01*
X66900Y139500D01*
Y141000D02*Y139500D01*
X67400Y139000D01*
X67900D01*
X68400Y139500D01*
Y141000D02*Y139500D01*
X69600Y141000D02*Y139500D01*
X70100Y139000D01*
X70600D01*
X71100Y139500D01*
Y141000D02*Y139500D01*
X71600Y139000D01*
X72100D01*
X72600Y139500D01*
Y141000D02*Y139500D01*
X73800Y139000D02*X74300D01*
X75500Y142000D02*Y141900D01*
Y140500D02*Y139000D01*
X78000Y141000D02*X78500Y140500D01*
X77000Y141000D02*X78000D01*
X76500Y140500D02*X77000Y141000D01*
X76500Y140500D02*Y139500D01*
X77000Y139000D01*
X78500Y141000D02*Y139500D01*
X79000Y139000D01*
X77000D02*X78000D01*
X78500Y139500D01*
X80700Y139000D02*X82200D01*
X82700Y139500D01*
X82200Y140000D02*X82700Y139500D01*
X80700Y140000D02*X82200D01*
X80200Y140500D02*X80700Y140000D01*
X80200Y140500D02*X80700Y141000D01*
X82200D01*
X82700Y140500D01*
X80200Y139500D02*X80700Y139000D01*
X84400Y141000D02*X85900D01*
X83900Y140500D02*X84400Y141000D01*
X83900Y140500D02*Y139500D01*
X84400Y139000D01*
X85900D01*
X88600Y141000D02*X89100Y140500D01*
X87600Y141000D02*X88600D01*
X87100Y140500D02*X87600Y141000D01*
X87100Y140500D02*Y139500D01*
X87600Y139000D01*
X89100Y141000D02*Y139500D01*
X89600Y139000D01*
X87600D02*X88600D01*
X89100Y139500D01*
X90800Y143000D02*Y139500D01*
X91300Y139000D01*
X92800D02*X94300D01*
X92300Y139500D02*X92800Y139000D01*
X92300Y140500D02*Y139500D01*
Y140500D02*X92800Y141000D01*
X93800D01*
X94300Y140500D01*
X92300Y140000D02*X94300D01*
Y140500D02*Y140000D01*
X97500Y143000D02*Y139000D01*
X97000D02*X97500Y139500D01*
X96000Y139000D02*X97000D01*
X95500Y139500D02*X96000Y139000D01*
X95500Y140500D02*Y139500D01*
Y140500D02*X96000Y141000D01*
X97000D01*
X97500Y140500D01*
X98700Y139000D02*X99200D01*
X100900Y141000D02*X102400D01*
X100400Y140500D02*X100900Y141000D01*
X100400Y140500D02*Y139500D01*
X100900Y139000D01*
X102400D01*
X103600Y140500D02*Y139500D01*
Y140500D02*X104100Y141000D01*
X105100D01*
X105600Y140500D01*
Y139500D01*
X105100Y139000D02*X105600Y139500D01*
X104100Y139000D02*X105100D01*
X103600Y139500D02*X104100Y139000D01*
X107300Y140500D02*Y139000D01*
Y140500D02*X107800Y141000D01*
X108300D01*
X108800Y140500D01*
Y139000D01*
Y140500D02*X109300Y141000D01*
X109800D01*
X110300Y140500D01*
Y139000D01*
X106800Y141000D02*X107300Y140500D01*
X37000Y133000D02*X37500Y132500D01*
X37000Y136000D02*X37500Y136500D01*
X37000Y136000D02*Y133000D01*
X39400Y132500D02*X40700D01*
X38700Y133200D02*X39400Y132500D01*
X38700Y135800D02*Y133200D01*
Y135800D02*X39400Y136500D01*
X40700D01*
X41900D02*X42400Y136000D01*
Y133000D01*
X41900Y132500D02*X42400Y133000D01*
X45400Y136000D02*X45900Y136500D01*
X47400D01*
X47900Y136000D01*
Y135000D01*
X45400Y132500D02*X47900Y135000D01*
X45400Y132500D02*X47900D01*
X49100Y133000D02*X49600Y132500D01*
X49100Y136000D02*Y133000D01*
Y136000D02*X49600Y136500D01*
X50600D01*
X51100Y136000D01*
Y133000D01*
X50600Y132500D02*X51100Y133000D01*
X49600Y132500D02*X50600D01*
X49100Y133500D02*X51100Y135500D01*
X52300Y135700D02*X53100Y136500D01*
Y132500D01*
X52300D02*X53800D01*
X55500D02*X57000Y134500D01*
Y136000D02*Y134500D01*
X56500Y136500D02*X57000Y136000D01*
X55500Y136500D02*X56500D01*
X55000Y136000D02*X55500Y136500D01*
X55000Y136000D02*Y135000D01*
X55500Y134500D01*
X57000D01*
X60700Y132500D02*X62000D01*
X60000Y133200D02*X60700Y132500D01*
X60000Y135800D02*Y133200D01*
Y135800D02*X60700Y136500D01*
X62000D01*
X63900Y132500D02*X65200D01*
X63200Y133200D02*X63900Y132500D01*
X63200Y135800D02*Y133200D01*
Y135800D02*X63900Y136500D01*
X65200D01*
X68200Y132500D02*X70200D01*
X70700Y133000D01*
Y134200D02*Y133000D01*
X70200Y134700D02*X70700Y134200D01*
X68700Y134700D02*X70200D01*
X68700Y136500D02*Y132500D01*
X68200Y136500D02*X70200D01*
X70700Y136000D01*
Y135200D01*
X70200Y134700D02*X70700Y135200D01*
X71900Y136500D02*X72900Y134500D01*
X73900Y136500D01*
X72900Y134500D02*Y132500D01*
X75100Y134500D02*X77100D01*
X80300Y136500D02*X80800Y136000D01*
X78800Y136500D02*X80300D01*
X78300Y136000D02*X78800Y136500D01*
X78300Y136000D02*Y135000D01*
X78800Y134500D01*
X80300D01*
X80800Y134000D01*
Y133000D01*
X80300Y132500D02*X80800Y133000D01*
X78800Y132500D02*X80300D01*
X78300Y133000D02*X78800Y132500D01*
X82000Y135500D02*Y132500D01*
Y135500D02*X82700Y136500D01*
X83800D01*
X84500Y135500D01*
Y132500D01*
X82000Y134500D02*X84500D01*
X2800Y72300D02*X4800D01*
X3800Y73300D02*Y71300D01*
X6000Y73800D02*X6500Y74300D01*
X7500D01*
X8000Y73800D01*
X7500Y70300D02*X8000Y70800D01*
X6500Y70300D02*X7500D01*
X6000Y70800D02*X6500Y70300D01*
Y72500D02*X7500D01*
X8000Y73800D02*Y73000D01*
Y72000D02*Y70800D01*
Y72000D02*X7500Y72500D01*
X8000Y73000D02*X7500Y72500D01*
X9200Y70300D02*X9700D01*
X10900Y73800D02*X11400Y74300D01*
X12400D01*
X12900Y73800D01*
X12400Y70300D02*X12900Y70800D01*
X11400Y70300D02*X12400D01*
X10900Y70800D02*X11400Y70300D01*
Y72500D02*X12400D01*
X12900Y73800D02*Y73000D01*
Y72000D02*Y70800D01*
Y72000D02*X12400Y72500D01*
X12900Y73000D02*X12400Y72500D01*
X14100Y74300D02*X15100Y70300D01*
X16100Y74300D01*
X5600Y44300D02*X6100Y43800D01*
X4100Y44300D02*X5600D01*
X3600Y43800D02*X4100Y44300D01*
X3600Y43800D02*Y40800D01*
X4100Y40300D01*
X5600D01*
X6100Y40800D01*
Y41800D02*Y40800D01*
X5600Y42300D02*X6100Y41800D01*
X4600Y42300D02*X5600D01*
X7300Y44300D02*Y40300D01*
Y44300D02*X9800Y40300D01*
Y44300D02*Y40300D01*
X11500Y44300D02*Y40300D01*
X12800Y44300D02*X13500Y43600D01*
Y41000D01*
X12800Y40300D02*X13500Y41000D01*
X11000Y40300D02*X12800D01*
X11000Y44300D02*X12800D01*
X11600Y62020D02*X14920D01*
X13260Y63680D02*Y60360D01*
X13120Y53900D02*Y50580D01*
X4500Y60900D02*Y59600D01*
X5200Y61600D02*X4500Y60900D01*
X5200Y61600D02*X7800D01*
X8500Y60900D01*
Y59600D01*
X4500Y58400D02*X8500D01*
X4500Y55900D02*X8500D01*
X6500Y58400D02*Y55900D01*
X8000Y54700D02*X8500Y54200D01*
Y52700D01*
X8000Y52200D01*
X7000D02*X8000D01*
X4500Y54700D02*X7000Y52200D01*
X4500Y54700D02*Y52200D01*
Y107000D02*Y105700D01*
X5200Y107700D02*X4500Y107000D01*
X5200Y107700D02*X7800D01*
X8500Y107000D01*
Y105700D01*
X4500Y104500D02*X8500D01*
X4500Y102000D02*X8500D01*
X6500Y104500D02*Y102000D01*
X7700Y100800D02*X8500Y100000D01*
X4500D02*X8500D01*
X4500Y100800D02*Y99300D01*
X2800Y118300D02*X4800D01*
X3800Y119300D02*Y117300D01*
X6000Y119800D02*X6500Y120300D01*
X7500D01*
X8000Y119800D01*
X7500Y116300D02*X8000Y116800D01*
X6500Y116300D02*X7500D01*
X6000Y116800D02*X6500Y116300D01*
Y118500D02*X7500D01*
X8000Y119800D02*Y119000D01*
Y118000D02*Y116800D01*
Y118000D02*X7500Y118500D01*
X8000Y119000D02*X7500Y118500D01*
X9200Y116300D02*X9700D01*
X10900Y119800D02*X11400Y120300D01*
X12400D01*
X12900Y119800D01*
X12400Y116300D02*X12900Y116800D01*
X11400Y116300D02*X12400D01*
X10900Y116800D02*X11400Y116300D01*
Y118500D02*X12400D01*
X12900Y119800D02*Y119000D01*
Y118000D02*Y116800D01*
Y118000D02*X12400Y118500D01*
X12900Y119000D02*X12400Y118500D01*
X14100Y120300D02*X15100Y116300D01*
X16100Y120300D01*
X5600Y90300D02*X6100Y89800D01*
X4100Y90300D02*X5600D01*
X3600Y89800D02*X4100Y90300D01*
X3600Y89800D02*Y86800D01*
X4100Y86300D01*
X5600D01*
X6100Y86800D01*
Y87800D02*Y86800D01*
X5600Y88300D02*X6100Y87800D01*
X4600Y88300D02*X5600D01*
X7300Y90300D02*Y86300D01*
Y90300D02*X9800Y86300D01*
Y90300D02*Y86300D01*
X11500Y90300D02*Y86300D01*
X12800Y90300D02*X13500Y89600D01*
Y87000D01*
X12800Y86300D02*X13500Y87000D01*
X11000Y86300D02*X12800D01*
X11000Y90300D02*X12800D01*
X11600Y108020D02*X14920D01*
X13260Y109680D02*Y106360D01*
X13120Y99900D02*Y96580D01*
X80000Y48500D02*X83000D01*
X80000D02*X79000Y49200D01*
Y50300D02*Y49200D01*
Y50300D02*X80000Y51000D01*
X83000D01*
X81000D02*Y48500D01*
X79800Y52200D02*X79000Y53000D01*
X83000D01*
Y53700D02*Y52200D01*
X80000Y41500D02*X80500Y41000D01*
X80000Y44500D02*Y41500D01*
Y44500D02*X80500Y45000D01*
X81500D01*
X82000Y44500D01*
Y41500D01*
X81500Y41000D02*X82000Y41500D01*
X80500Y41000D02*X81500D01*
X80000Y42000D02*X82000Y44000D01*
X86000Y48500D02*X89000D01*
X86000D02*X85000Y49200D01*
Y50300D02*Y49200D01*
Y50300D02*X86000Y51000D01*
X89000D01*
X87000D02*Y48500D01*
X88500Y52200D02*X89000Y52700D01*
X85500Y52200D02*X88500D01*
X85500D02*X85000Y52700D01*
Y53700D02*Y52700D01*
Y53700D02*X85500Y54200D01*
X88500D01*
X89000Y53700D02*X88500Y54200D01*
X89000Y53700D02*Y52700D01*
X88000Y52200D02*X86000Y54200D01*
X74000Y48500D02*X77000D01*
X74000D02*X73000Y49200D01*
Y50300D02*Y49200D01*
Y50300D02*X74000Y51000D01*
X77000D01*
X75000D02*Y48500D01*
X73500Y52200D02*X73000Y52700D01*
Y54200D02*Y52700D01*
Y54200D02*X73500Y54700D01*
X74500D01*
X77000Y52200D02*X74500Y54700D01*
X77000D02*Y52200D01*
X74000Y41500D02*X74500Y41000D01*
X74000Y44500D02*Y41500D01*
Y44500D02*X74500Y45000D01*
X75500D01*
X76000Y44500D01*
Y41500D01*
X75500Y41000D02*X76000Y41500D01*
X74500Y41000D02*X75500D01*
X74000Y42000D02*X76000Y44000D01*
X74000Y36000D02*X74500Y35500D01*
X74000Y39000D02*Y36000D01*
Y39000D02*X74500Y39500D01*
X75500D01*
X76000Y39000D01*
Y36000D01*
X75500Y35500D02*X76000Y36000D01*
X74500Y35500D02*X75500D01*
X74000Y36500D02*X76000Y38500D01*
X74000Y30500D02*X74500Y30000D01*
X74000Y33500D02*Y30500D01*
Y33500D02*X74500Y34000D01*
X75500D01*
X76000Y33500D01*
Y30500D01*
X75500Y30000D02*X76000Y30500D01*
X74500Y30000D02*X75500D01*
X74000Y31000D02*X76000Y33000D01*
X86000Y41500D02*X86500Y41000D01*
X86000Y44500D02*Y41500D01*
Y44500D02*X86500Y45000D01*
X87500D01*
X88000Y44500D01*
Y41500D01*
X87500Y41000D02*X88000Y41500D01*
X86500Y41000D02*X87500D01*
X86000Y42000D02*X88000Y44000D01*
X80000Y36000D02*X80500Y35500D01*
X80000Y39000D02*Y36000D01*
Y39000D02*X80500Y39500D01*
X81500D01*
X82000Y39000D01*
Y36000D01*
X81500Y35500D02*X82000Y36000D01*
X80500Y35500D02*X81500D01*
X80000Y36500D02*X82000Y38500D01*
X86500Y38700D02*X87300Y39500D01*
Y35500D01*
X86500D02*X88000D01*
X86000Y30500D02*X86500Y30000D01*
X86000Y33500D02*Y30500D01*
Y33500D02*X86500Y34000D01*
X87500D01*
X88000Y33500D01*
Y30500D01*
X87500Y30000D02*X88000Y30500D01*
X86500Y30000D02*X87500D01*
X86000Y31000D02*X88000Y33000D01*
X80500Y33200D02*X81300Y34000D01*
Y30000D01*
X80500D02*X82000D01*
X74000Y25000D02*X74500Y24500D01*
X74000Y28000D02*Y25000D01*
Y28000D02*X74500Y28500D01*
X75500D01*
X76000Y28000D01*
Y25000D01*
X75500Y24500D02*X76000Y25000D01*
X74500Y24500D02*X75500D01*
X74000Y25500D02*X76000Y27500D01*
X80500Y27700D02*X81300Y28500D01*
Y24500D01*
X80500D02*X82000D01*
X74500Y22200D02*X75300Y23000D01*
Y19000D01*
X74500D02*X76000D01*
X74500Y16700D02*X75300Y17500D01*
Y13500D01*
X74500D02*X76000D01*
X74500Y11200D02*X75300Y12000D01*
Y8000D01*
X74500D02*X76000D01*
X74500Y5700D02*X75300Y6500D01*
Y2500D01*
X74500D02*X76000D01*
X86500Y27700D02*X87300Y28500D01*
Y24500D01*
X86500D02*X88000D01*
X80000Y19500D02*X80500Y19000D01*
X80000Y22500D02*Y19500D01*
Y22500D02*X80500Y23000D01*
X81500D01*
X82000Y22500D01*
Y19500D01*
X81500Y19000D02*X82000Y19500D01*
X80500Y19000D02*X81500D01*
X80000Y20000D02*X82000Y22000D01*
X86000Y19500D02*X86500Y19000D01*
X86000Y22500D02*Y19500D01*
Y22500D02*X86500Y23000D01*
X87500D01*
X88000Y22500D01*
Y19500D01*
X87500Y19000D02*X88000Y19500D01*
X86500Y19000D02*X87500D01*
X86000Y20000D02*X88000Y22000D01*
X80000Y14000D02*X80500Y13500D01*
X80000Y17000D02*Y14000D01*
Y17000D02*X80500Y17500D01*
X81500D01*
X82000Y17000D01*
Y14000D01*
X81500Y13500D02*X82000Y14000D01*
X80500Y13500D02*X81500D01*
X80000Y14500D02*X82000Y16500D01*
X86500Y16700D02*X87300Y17500D01*
Y13500D01*
X86500D02*X88000D01*
X86000Y8500D02*X86500Y8000D01*
X86000Y11500D02*Y8500D01*
Y11500D02*X86500Y12000D01*
X87500D01*
X88000Y11500D01*
Y8500D01*
X87500Y8000D02*X88000Y8500D01*
X86500Y8000D02*X87500D01*
X86000Y9000D02*X88000Y11000D01*
X80500Y11200D02*X81300Y12000D01*
Y8000D01*
X80500D02*X82000D01*
X80500Y5700D02*X81300Y6500D01*
Y2500D01*
X80500D02*X82000D01*
X86500Y5700D02*X87300Y6500D01*
Y2500D01*
X86500D02*X88000D01*
X35000Y21500D02*X37000Y25500D01*
X34500D02*X37000D01*
X38200Y23500D02*X40200D01*
X41400Y21500D02*X43400D01*
X43900Y22000D01*
Y23200D02*Y22000D01*
X43400Y23700D02*X43900Y23200D01*
X41900Y23700D02*X43400D01*
X41900Y25500D02*Y21500D01*
X41400Y25500D02*X43400D01*
X43900Y25000D01*
Y24200D01*
X43400Y23700D02*X43900Y24200D01*
X45100Y25500D02*X46100D01*
X45600D02*Y21500D01*
X45100D02*X46100D01*
X47300Y25500D02*X49300D01*
X48300D02*Y21500D01*
X52300Y24500D02*Y21500D01*
Y24500D02*X53000Y25500D01*
X54100D01*
X54800Y24500D01*
Y21500D01*
X52300Y23500D02*X54800D01*
X56500Y25500D02*Y21500D01*
X57800Y25500D02*X58500Y24800D01*
Y22200D01*
X57800Y21500D02*X58500Y22200D01*
X56000Y21500D02*X57800D01*
X56000Y25500D02*X57800D01*
X60200D02*Y21500D01*
X61500Y25500D02*X62200Y24800D01*
Y22200D01*
X61500Y21500D02*X62200Y22200D01*
X59700Y21500D02*X61500D01*
X59700Y25500D02*X61500D01*
X63400D02*X65400D01*
X65900Y25000D01*
Y24000D01*
X65400Y23500D02*X65900Y24000D01*
X63900Y23500D02*X65400D01*
X63900Y25500D02*Y21500D01*
X64700Y23500D02*X65900Y21500D01*
X67100Y24000D02*X67600D01*
X67100Y23000D02*X67600D01*
X34000Y15500D02*X34500Y15000D01*
X34000Y18500D02*Y15500D01*
Y18500D02*X34500Y19000D01*
X35500D01*
X36000Y18500D01*
Y15500D01*
X35500Y15000D02*X36000Y15500D01*
X34500Y15000D02*X35500D01*
X34000Y16000D02*X36000Y18000D01*
X37200Y17000D02*X39200Y15000D01*
X37200D02*X39200Y17000D01*
X41900Y19000D02*X42400Y18500D01*
X40900Y19000D02*X41900D01*
X40400Y18500D02*X40900Y19000D01*
X40400Y18500D02*Y15500D01*
X40900Y15000D01*
X41900Y17200D02*X42400Y16700D01*
X40400Y17200D02*X41900D01*
X40900Y15000D02*X41900D01*
X42400Y15500D01*
Y16700D02*Y15500D01*
X43600D02*X44100Y15000D01*
X43600Y16300D02*Y15500D01*
Y16300D02*X44300Y17000D01*
X44900D01*
X45600Y16300D01*
Y15500D01*
X45100Y15000D02*X45600Y15500D01*
X44100Y15000D02*X45100D01*
X43600Y17700D02*X44300Y17000D01*
X43600Y18500D02*Y17700D01*
Y18500D02*X44100Y19000D01*
X45100D01*
X45600Y18500D01*
Y17700D01*
X44900Y17000D02*X45600Y17700D01*
X48600Y17000D02*X50600D01*
X49600Y18000D02*Y16000D01*
X53600Y18000D02*Y15000D01*
Y18000D02*X54300Y19000D01*
X55400D01*
X56100Y18000D01*
Y15000D01*
X53600Y17000D02*X56100D01*
X57300Y18500D02*X57800Y19000D01*
X59300D01*
X59800Y18500D01*
Y17500D01*
X57300Y15000D02*X59800Y17500D01*
X57300Y15000D02*X59800D01*
X61000D02*X61500D01*
X62700D02*X63200D01*
X64400Y18000D02*Y15000D01*
Y18000D02*X65100Y19000D01*
X66200D01*
X66900Y18000D01*
Y15000D01*
X64400Y17000D02*X66900D01*
X68100Y15500D02*X68600Y15000D01*
X68100Y18500D02*Y15500D01*
Y18500D02*X68600Y19000D01*
X69600D01*
X70100Y18500D01*
Y15500D01*
X69600Y15000D02*X70100Y15500D01*
X68600Y15000D02*X69600D01*
X68100Y16000D02*X70100Y18000D01*
X114500Y35500D02*X117000Y39500D01*
X114500D02*X117000Y35500D01*
X114000Y50000D02*Y49200D01*
Y50000D02*X117500D01*
X118000Y49500D02*X117500Y50000D01*
X118000Y49500D02*Y49000D01*
X117500Y48500D02*X118000Y49000D01*
X117000Y48500D02*X117500D01*
X114000Y51700D02*X118000D01*
X114000Y53200D02*Y51200D01*
Y53200D02*X114500Y53700D01*
X115500D01*
X116000Y53200D02*X115500Y53700D01*
X116000Y53200D02*Y51700D01*
X117500Y54900D02*X118000Y55400D01*
X114500Y54900D02*X117500D01*
X114500D02*X114000Y55400D01*
Y56400D02*Y55400D01*
Y56400D02*X114500Y56900D01*
X117500D01*
X118000Y56400D02*X117500Y56900D01*
X118000Y56400D02*Y55400D01*
X117000Y54900D02*X115000Y56900D01*
X114000Y58100D02*X118000D01*
Y60100D02*Y58100D01*
X121500Y50000D02*Y49200D01*
Y50000D02*X125000D01*
X125500Y49500D02*X125000Y50000D01*
X125500Y49500D02*Y49000D01*
X125000Y48500D02*X125500Y49000D01*
X124500Y48500D02*X125000D01*
X121500Y51700D02*X125500D01*
X121500Y53200D02*Y51200D01*
Y53200D02*X122000Y53700D01*
X123000D01*
X123500Y53200D02*X123000Y53700D01*
X123500Y53200D02*Y51700D01*
X125000Y54900D02*X125500Y55400D01*
X122000Y54900D02*X125000D01*
X122000D02*X121500Y55400D01*
Y56400D02*Y55400D01*
Y56400D02*X122000Y56900D01*
X125000D01*
X125500Y56400D02*X125000Y56900D01*
X125500Y56400D02*Y55400D01*
X124500Y54900D02*X122500Y56900D01*
X121500Y58100D02*X125500D01*
X121500Y60600D02*X125500D01*
X123500D02*Y58100D01*
X122000Y43000D02*X124000D01*
X122000Y37500D02*X124000D01*
X114500Y43000D02*X116500D01*
X114500Y30000D02*X117000Y34000D01*
X114500D02*X117000Y30000D01*
X114500Y26500D02*X116500D01*
X114500Y21000D02*X116500D01*
X114500Y15500D02*X116500D01*
X114500Y10000D02*X116500D01*
X114500Y4500D02*X116500D01*
X122000Y19000D02*X124500Y23000D01*
X122000D02*X124500Y19000D01*
X122000Y13500D02*X124500Y17500D01*
X122000D02*X124500Y13500D01*
X122000Y8000D02*X124500Y12000D01*
X122000D02*X124500Y8000D01*
X122000Y32000D02*X124000D01*
X122000Y26500D02*X124000D01*
X122000Y4500D02*X124000D01*
X103000Y30000D02*X105500Y34000D01*
X103000D02*X105500Y30000D01*
X95500Y24500D02*X98000Y28500D01*
X95500D02*X98000Y24500D01*
X95500Y32000D02*X97500D01*
X103000Y26500D02*X105000D01*
X95500Y19000D02*X98000Y23000D01*
X95500D02*X98000Y19000D01*
X95500Y15500D02*X97500D01*
X95500Y10000D02*X97500D01*
X95500Y4500D02*X97500D01*
X103000Y8000D02*X105500Y12000D01*
X103000D02*X105500Y8000D01*
X103000Y2500D02*X105500Y6500D01*
X103000D02*X105500Y2500D01*
X103000Y21000D02*X105000D01*
X103000Y15500D02*X105000D01*
X95000Y50000D02*Y49200D01*
Y50000D02*X98500D01*
X99000Y49500D02*X98500Y50000D01*
X99000Y49500D02*Y49000D01*
X98500Y48500D02*X99000Y49000D01*
X98000Y48500D02*X98500D01*
X95000Y51700D02*X99000D01*
X95000Y53200D02*Y51200D01*
Y53200D02*X95500Y53700D01*
X96500D01*
X97000Y53200D02*X96500Y53700D01*
X97000Y53200D02*Y51700D01*
X95800Y54900D02*X95000Y55700D01*
X99000D01*
Y56400D02*Y54900D01*
X95000Y57600D02*X99000D01*
Y59600D02*Y57600D01*
X95500Y43000D02*X97500D01*
X95500Y37500D02*X97500D01*
X102500Y50000D02*Y49200D01*
Y50000D02*X106000D01*
X106500Y49500D02*X106000Y50000D01*
X106500Y49500D02*Y49000D01*
X106000Y48500D02*X106500Y49000D01*
X105500Y48500D02*X106000D01*
X102500Y51700D02*X106500D01*
X102500Y53200D02*Y51200D01*
Y53200D02*X103000Y53700D01*
X104000D01*
X104500Y53200D02*X104000Y53700D01*
X104500Y53200D02*Y51700D01*
X103300Y54900D02*X102500Y55700D01*
X106500D01*
Y56400D02*Y54900D01*
X102500Y57600D02*X106500D01*
X102500Y60100D02*X106500D01*
X104500D02*Y57600D01*
X103000Y37500D02*X105000D01*
X103000Y43000D02*X105000D01*
G54D57*X89107Y68245D02*X89893D01*
X89107Y73755D02*X89893D01*
X106107D02*X106893D01*
X106107Y68245D02*X106893D01*
X53500Y77000D02*Y47000D01*
X63500D01*
Y77000D02*X53500D01*
Y67000D02*X63500D01*
Y65000D02*Y77000D01*
Y47000D02*Y59000D01*
X43500Y78000D02*X18000D01*
X43500Y36000D02*X18000D01*
X43500Y78000D02*Y36000D01*
X41500Y78000D02*Y36000D01*
X18000Y78000D02*Y36000D01*
X53500Y123000D02*Y93000D01*
X63500D01*
Y123000D02*X53500D01*
Y113000D02*X63500D01*
Y111000D02*Y123000D01*
Y93000D02*Y105000D01*
X43600Y124200D02*X18100D01*
X43600Y82200D02*X18100D01*
X43600Y124200D02*Y82200D01*
X41600Y124200D02*Y82200D01*
X18100Y124200D02*Y82200D01*
X77141Y89969D02*X100763D01*
Y78157D01*
X77141D01*
Y89969D01*
X75141Y91469D02*G75*G03X75141Y91469I500J0D01*G01*
G54D58*X107500Y119000D02*Y118200D01*
Y119000D02*X111000D01*
X111500Y118500D02*X111000Y119000D01*
X111500Y118500D02*Y118000D01*
X111000Y117500D02*X111500Y118000D01*
X110500Y117500D02*X111000D01*
X107500Y120700D02*X111500D01*
X107500Y122200D02*Y120200D01*
Y122200D02*X108000Y122700D01*
X109000D01*
X109500Y122200D02*X109000Y122700D01*
X109500Y122200D02*Y120700D01*
X111000Y123900D02*X111500Y124400D01*
X108000Y123900D02*X111000D01*
X108000D02*X107500Y124400D01*
Y125400D02*Y124400D01*
Y125400D02*X108000Y125900D01*
X111000D01*
X111500Y125400D02*X111000Y125900D01*
X111500Y125400D02*Y124400D01*
X110500Y123900D02*X108500Y125900D01*
X107500Y127100D02*X111500D01*
Y129100D02*Y127100D01*
X90000Y119100D02*Y118300D01*
Y119100D02*X93500D01*
X94000Y118600D02*X93500Y119100D01*
X94000Y118600D02*Y118100D01*
X93500Y117600D02*X94000Y118100D01*
X93000Y117600D02*X93500D01*
X90000Y120800D02*X94000D01*
X90000Y122300D02*Y120300D01*
Y122300D02*X90500Y122800D01*
X91500D01*
X92000Y122300D02*X91500Y122800D01*
X92000Y122300D02*Y120800D01*
X90800Y124000D02*X90000Y124800D01*
X94000D01*
Y125500D02*Y124000D01*
X90000Y126700D02*X94000D01*
X90000Y129200D02*X94000D01*
X92000D02*Y126700D01*
X117000Y119100D02*Y118300D01*
Y119100D02*X120500D01*
X121000Y118600D02*X120500Y119100D01*
X121000Y118600D02*Y118100D01*
X120500Y117600D02*X121000Y118100D01*
X120000Y117600D02*X120500D01*
X117000Y120800D02*X121000D01*
X117000Y122300D02*Y120300D01*
Y122300D02*X117500Y122800D01*
X118500D01*
X119000Y122300D02*X118500Y122800D01*
X119000Y122300D02*Y120800D01*
X120500Y124000D02*X121000Y124500D01*
X117500Y124000D02*X120500D01*
X117500D02*X117000Y124500D01*
Y125500D02*Y124500D01*
Y125500D02*X117500Y126000D01*
X120500D01*
X121000Y125500D02*X120500Y126000D01*
X121000Y125500D02*Y124500D01*
X120000Y124000D02*X118000Y126000D01*
X117000Y127200D02*X121000D01*
X117000Y129700D02*X121000D01*
X119000D02*Y127200D01*
X154000Y84000D02*Y83200D01*
Y84000D02*X157500D01*
X158000Y83500D02*X157500Y84000D01*
X158000Y83500D02*Y83000D01*
X157500Y82500D02*X158000Y83000D01*
X157000Y82500D02*X157500D01*
X154800Y85200D02*X154000Y86000D01*
X158000D01*
Y86700D02*Y85200D01*
X86452Y96763D02*Y93263D01*
X86952Y92763D01*
X87952D01*
X88452Y93263D01*
Y96763D02*Y93263D01*
X89652Y95963D02*X90452Y96763D01*
Y92763D01*
X89652D02*X91152D01*
X51000Y122300D02*Y121500D01*
X47500D02*X51000D01*
X47000Y122000D02*X47500Y121500D01*
X47000Y122500D02*Y122000D01*
X47500Y123000D02*X47000Y122500D01*
X47500Y123000D02*X48000D01*
X50500Y120300D02*X51000Y119800D01*
Y118800D01*
X50500Y118300D01*
X47000Y118800D02*X47500Y118300D01*
X47000Y119800D02*Y118800D01*
X47500Y120300D02*X47000Y119800D01*
X49200D02*Y118800D01*
X49700Y118300D02*X50500D01*
X47500D02*X48700D01*
X49200Y118800D01*
X49700Y118300D02*X49200Y118800D01*
X47000Y117100D02*X50000D01*
X51000Y116400D01*
Y115300D01*
X50000Y114600D01*
X47000D02*X50000D01*
X49000Y117100D02*Y114600D01*
X37900Y129800D02*X38700D01*
Y126300D01*
X38200Y125800D02*X38700Y126300D01*
X37700Y125800D02*X38200D01*
X37200Y126300D02*X37700Y125800D01*
X37200Y126800D02*Y126300D01*
X39900Y129300D02*X40400Y129800D01*
X41400D01*
X41900Y129300D01*
X41400Y125800D02*X41900Y126300D01*
X40400Y125800D02*X41400D01*
X39900Y126300D02*X40400Y125800D01*
Y128000D02*X41400D01*
X41900Y129300D02*Y128500D01*
Y127500D02*Y126300D01*
Y127500D02*X41400Y128000D01*
X41900Y128500D02*X41400Y128000D01*
X80500Y119100D02*Y118300D01*
Y119100D02*X84000D01*
X84500Y118600D02*X84000Y119100D01*
X84500Y118600D02*Y118100D01*
X84000Y117600D02*X84500Y118100D01*
X83500Y117600D02*X84000D01*
X80500Y120800D02*X84500D01*
X80500Y122300D02*Y120300D01*
Y122300D02*X81000Y122800D01*
X82000D01*
X82500Y122300D02*X82000Y122800D01*
X82500Y122300D02*Y120800D01*
X81300Y124000D02*X80500Y124800D01*
X84500D01*
Y125500D02*Y124000D01*
X80500Y126700D02*X84500D01*
Y128700D02*Y126700D01*
X87200Y62000D02*X88500D01*
X86500Y62700D02*X87200Y62000D01*
X86500Y65300D02*Y62700D01*
Y65300D02*X87200Y66000D01*
X88500D01*
X89700Y65500D02*X90200Y66000D01*
X91700D01*
X92200Y65500D01*
Y64500D01*
X89700Y62000D02*X92200Y64500D01*
X89700Y62000D02*X92200D01*
X110700D02*X112000D01*
X110000Y62700D02*X110700Y62000D01*
X110000Y65300D02*Y62700D01*
Y65300D02*X110700Y66000D01*
X112000D01*
X113200Y65200D02*X114000Y66000D01*
Y62000D01*
X113200D02*X114700D01*
X46400Y83500D02*X47200D01*
Y80000D01*
X46700Y79500D02*X47200Y80000D01*
X46200Y79500D02*X46700D01*
X45700Y80000D02*X46200Y79500D01*
X45700Y80500D02*Y80000D01*
X48900Y83500D02*Y79500D01*
X48400Y83500D02*X50400D01*
X50900Y83000D01*
Y82000D01*
X50400Y81500D02*X50900Y82000D01*
X48900Y81500D02*X50400D01*
X52100Y83000D02*X52600Y83500D01*
X54100D01*
X54600Y83000D01*
Y82000D01*
X52100Y79500D02*X54600Y82000D01*
X52100Y79500D02*X54600D01*
X154000Y73800D02*Y73000D01*
Y73800D02*X157500D01*
X158000Y73300D02*X157500Y73800D01*
X158000Y73300D02*Y72800D01*
X157500Y72300D02*X158000Y72800D01*
X157000Y72300D02*X157500D01*
X154500Y75000D02*X154000Y75500D01*
Y77000D02*Y75500D01*
Y77000D02*X154500Y77500D01*
X155500D01*
X158000Y75000D02*X155500Y77500D01*
X158000D02*Y75000D01*
X51500Y74800D02*Y74000D01*
X48000D02*X51500D01*
X47500Y74500D02*X48000Y74000D01*
X47500Y75000D02*Y74500D01*
X48000Y75500D02*X47500Y75000D01*
X48000Y75500D02*X48500D01*
X49000Y72800D02*X51500Y70800D01*
X49000Y72800D02*Y70300D01*
X47500Y70800D02*X51500D01*
X47500Y69100D02*X50500D01*
X51500Y68400D01*
Y67300D01*
X50500Y66600D01*
X47500D02*X50500D01*
X49500Y69100D02*Y66600D01*
X38500Y33900D02*X39300D01*
Y30400D01*
X38800Y29900D02*X39300Y30400D01*
X38300Y29900D02*X38800D01*
X37800Y30400D02*X38300Y29900D01*
X37800Y30900D02*Y30400D01*
X40500Y31400D02*X42500Y33900D01*
X40500Y31400D02*X43000D01*
X42500Y33900D02*Y29900D01*
X47200Y37100D02*X48000D01*
Y33600D01*
X47500Y33100D02*X48000Y33600D01*
X47000Y33100D02*X47500D01*
X46500Y33600D02*X47000Y33100D01*
X46500Y34100D02*Y33600D01*
X49700Y37100D02*Y33100D01*
X49200Y37100D02*X51200D01*
X51700Y36600D01*
Y35600D01*
X51200Y35100D02*X51700Y35600D01*
X49700Y35100D02*X51200D01*
X52900Y36600D02*X53400Y37100D01*
X54400D01*
X54900Y36600D01*
X54400Y33100D02*X54900Y33600D01*
X53400Y33100D02*X54400D01*
X52900Y33600D02*X53400Y33100D01*
Y35300D02*X54400D01*
X54900Y36600D02*Y35800D01*
Y34800D02*Y33600D01*
Y34800D02*X54400Y35300D01*
X54900Y35800D02*X54400Y35300D01*
M02*
