M48
INCH
T42C0.020
T41C0.038
T40C0.048
T39C0.129
%
T42
X007600Y011200
X008000Y007100
X008600Y008400
X008600Y007900
X010250Y011200
X011000Y007750
X011600Y007100
X013050Y009150
X013050Y004550
X013550Y009150
X013550Y004550
X014050Y009150
X014050Y004550
T41
X005850Y011800
X005850Y009800
X005850Y007200
X005850Y005200
X005950Y010800
X005950Y006200
T40
X003050Y007200
X003050Y006200
X003050Y005200
X003050Y004200
X003060Y011820
X003060Y010820
X003060Y009820
X003060Y008820
T39
X001700Y014300
X001700Y001700
X014300Y014300
X014300Y001700
M30
