G04 start of page 12 for group -3984 idx -3984 *
G04 Title: (unknown), fab *
G04 Creator: pcb 20140316 *
G04 CreationDate: Tue 26 Feb 2019 04:37:41 AM GMT UTC *
G04 For: railfan *
G04 Format: Gerber/RS-274X *
G04 PCB-Dimensions (mil): 1600.00 1600.00 *
G04 PCB-Coordinate-Origin: lower left *
%MOIN*%
%FSLAX25Y25*%
%LNFAB*%
%ADD69C,0.0100*%
%ADD68C,0.0075*%
%ADD67C,0.0060*%
%ADD66R,0.0080X0.0080*%
G54D66*X142200Y143000D02*G75*G03X143800Y143000I800J0D01*G01*
G75*G03X142200Y143000I-800J0D01*G01*
X16200D02*G75*G03X17800Y143000I800J0D01*G01*
G75*G03X16200Y143000I-800J0D01*G01*
X142200Y17000D02*G75*G03X143800Y17000I800J0D01*G01*
G75*G03X142200Y17000I-800J0D01*G01*
X16200D02*G75*G03X17800Y17000I800J0D01*G01*
G75*G03X16200Y17000I-800J0D01*G01*
X14200Y171250D02*G75*G03X15800Y171250I800J0D01*G01*
G75*G03X14200Y171250I-800J0D01*G01*
G54D67*X135000Y173500D02*X136500Y170500D01*
X138000Y173500D01*
X136500Y170500D02*Y167500D01*
X139800Y170800D02*X142050D01*
X139800Y167500D02*X142800D01*
X139800Y173500D02*Y167500D01*
Y173500D02*X142800D01*
X147600D02*X148350Y172750D01*
X145350Y173500D02*X147600D01*
X144600Y172750D02*X145350Y173500D01*
X144600Y172750D02*Y171250D01*
X145350Y170500D01*
X147600D01*
X148350Y169750D01*
Y168250D01*
X147600Y167500D02*X148350Y168250D01*
X145350Y167500D02*X147600D01*
X144600Y168250D02*X145350Y167500D01*
X98000Y169750D02*X101000Y173500D01*
X98000Y169750D02*X101750D01*
X101000Y173500D02*Y167500D01*
X45000Y168250D02*X45750Y167500D01*
X45000Y172750D02*Y168250D01*
Y172750D02*X45750Y173500D01*
X47250D01*
X48000Y172750D01*
Y168250D01*
X47250Y167500D02*X48000Y168250D01*
X45750Y167500D02*X47250D01*
X45000Y169000D02*X48000Y172000D01*
X49800Y167500D02*X50550D01*
X52350Y172300D02*X53550Y173500D01*
Y167500D01*
X52350D02*X54600D01*
X56400Y172750D02*X57150Y173500D01*
X59400D01*
X60150Y172750D01*
Y171250D01*
X56400Y167500D02*X60150Y171250D01*
X56400Y167500D02*X60150D01*
X62700D02*X64950Y170500D01*
Y172750D02*Y170500D01*
X64200Y173500D02*X64950Y172750D01*
X62700Y173500D02*X64200D01*
X61950Y172750D02*X62700Y173500D01*
X61950Y172750D02*Y171250D01*
X62700Y170500D01*
X64950D01*
X29300Y73200D02*X31700Y70800D01*
X29300D02*X31700Y73200D01*
X29300Y63200D02*X31700Y60800D01*
X29300D02*X31700Y63200D01*
X29300Y53200D02*X31700Y50800D01*
X29300D02*X31700Y53200D01*
X29300Y43200D02*X31700Y40800D01*
X29300D02*X31700Y43200D01*
X29400Y119400D02*X31800Y117000D01*
X29400D02*X31800Y119400D01*
X29400Y109400D02*X31800Y107000D01*
X29400D02*X31800Y109400D01*
X29400Y99400D02*X31800Y97000D01*
X29400D02*X31800Y99400D01*
X29400Y89400D02*X31800Y87000D01*
X29400D02*X31800Y89400D01*
X13800Y187450D02*X16200Y185050D01*
X13800D02*X16200Y187450D01*
X135000Y188500D02*X136500Y185500D01*
X138000Y188500D01*
X136500Y185500D02*Y182500D01*
X139800Y185800D02*X142050D01*
X139800Y182500D02*X142800D01*
X139800Y188500D02*Y182500D01*
Y188500D02*X142800D01*
X147600D02*X148350Y187750D01*
X145350Y188500D02*X147600D01*
X144600Y187750D02*X145350Y188500D01*
X144600Y187750D02*Y186250D01*
X145350Y185500D01*
X147600D01*
X148350Y184750D01*
Y183250D01*
X147600Y182500D02*X148350Y183250D01*
X145350Y182500D02*X147600D01*
X144600Y183250D02*X145350Y182500D01*
X98000Y183250D02*X98750Y182500D01*
X98000Y184450D02*Y183250D01*
Y184450D02*X99050Y185500D01*
X99950D01*
X101000Y184450D01*
Y183250D01*
X100250Y182500D02*X101000Y183250D01*
X98750Y182500D02*X100250D01*
X98000Y186550D02*X99050Y185500D01*
X98000Y187750D02*Y186550D01*
Y187750D02*X98750Y188500D01*
X100250D01*
X101000Y187750D01*
Y186550D01*
X99950Y185500D02*X101000Y186550D01*
X45000Y183250D02*X45750Y182500D01*
X45000Y187750D02*Y183250D01*
Y187750D02*X45750Y188500D01*
X47250D01*
X48000Y187750D01*
Y183250D01*
X47250Y182500D02*X48000Y183250D01*
X45750Y182500D02*X47250D01*
X45000Y184000D02*X48000Y187000D01*
X49800Y182500D02*X50550D01*
X52350Y183250D02*X53100Y182500D01*
X52350Y187750D02*Y183250D01*
Y187750D02*X53100Y188500D01*
X54600D01*
X55350Y187750D01*
Y183250D01*
X54600Y182500D02*X55350Y183250D01*
X53100Y182500D02*X54600D01*
X52350Y184000D02*X55350Y187000D01*
X57150Y184750D02*X60150Y188500D01*
X57150Y184750D02*X60900D01*
X60150Y188500D02*Y182500D01*
X62700Y183250D02*X63450Y182500D01*
X62700Y184450D02*Y183250D01*
Y184450D02*X63750Y185500D01*
X64650D01*
X65700Y184450D01*
Y183250D01*
X64950Y182500D02*X65700Y183250D01*
X63450Y182500D02*X64950D01*
X62700Y186550D02*X63750Y185500D01*
X62700Y187750D02*Y186550D01*
Y187750D02*X63450Y188500D01*
X64950D01*
X65700Y187750D01*
Y186550D01*
X64650Y185500D02*X65700Y186550D01*
X58500Y73600D02*Y70400D01*
X56900Y72000D02*X60100D01*
X59500Y63600D02*Y60400D01*
X57900Y62000D02*X61100D01*
X58500Y53600D02*Y50400D01*
X56900Y52000D02*X60100D01*
X58500Y119600D02*Y116400D01*
X56900Y118000D02*X60100D01*
X59500Y109600D02*Y106400D01*
X57900Y108000D02*X61100D01*
X58500Y99600D02*Y96400D01*
X56900Y98000D02*X60100D01*
X15000Y202850D02*Y199650D01*
X13400Y201250D02*X16600D01*
X135000Y203500D02*X136500Y200500D01*
X138000Y203500D01*
X136500Y200500D02*Y197500D01*
X139800Y200800D02*X142050D01*
X139800Y197500D02*X142800D01*
X139800Y203500D02*Y197500D01*
Y203500D02*X142800D01*
X147600D02*X148350Y202750D01*
X145350Y203500D02*X147600D01*
X144600Y202750D02*X145350Y203500D01*
X144600Y202750D02*Y201250D01*
X145350Y200500D01*
X147600D01*
X148350Y199750D01*
Y198250D01*
X147600Y197500D02*X148350Y198250D01*
X145350Y197500D02*X147600D01*
X144600Y198250D02*X145350Y197500D01*
X100250Y203500D02*X101000Y202750D01*
X98750Y203500D02*X100250D01*
X98000Y202750D02*X98750Y203500D01*
X98000Y202750D02*Y198250D01*
X98750Y197500D01*
X100250Y200800D02*X101000Y200050D01*
X98000Y200800D02*X100250D01*
X98750Y197500D02*X100250D01*
X101000Y198250D01*
Y200050D02*Y198250D01*
X45000D02*X45750Y197500D01*
X45000Y202750D02*Y198250D01*
Y202750D02*X45750Y203500D01*
X47250D01*
X48000Y202750D01*
Y198250D01*
X47250Y197500D02*X48000Y198250D01*
X45750Y197500D02*X47250D01*
X45000Y199000D02*X48000Y202000D01*
X49800Y197500D02*X50550D01*
X52350Y198250D02*X53100Y197500D01*
X52350Y202750D02*Y198250D01*
Y202750D02*X53100Y203500D01*
X54600D01*
X55350Y202750D01*
Y198250D01*
X54600Y197500D02*X55350Y198250D01*
X53100Y197500D02*X54600D01*
X52350Y199000D02*X55350Y202000D01*
X57150Y202750D02*X57900Y203500D01*
X59400D01*
X60150Y202750D01*
X59400Y197500D02*X60150Y198250D01*
X57900Y197500D02*X59400D01*
X57150Y198250D02*X57900Y197500D01*
Y200800D02*X59400D01*
X60150Y202750D02*Y201550D01*
Y200050D02*Y198250D01*
Y200050D02*X59400Y200800D01*
X60150Y201550D02*X59400Y200800D01*
X61950Y198250D02*X62700Y197500D01*
X61950Y199450D02*Y198250D01*
Y199450D02*X63000Y200500D01*
X63900D01*
X64950Y199450D01*
Y198250D01*
X64200Y197500D02*X64950Y198250D01*
X62700Y197500D02*X64200D01*
X61950Y201550D02*X63000Y200500D01*
X61950Y202750D02*Y201550D01*
Y202750D02*X62700Y203500D01*
X64200D01*
X64950Y202750D01*
Y201550D01*
X63900Y200500D02*X64950Y201550D01*
X86000Y84000D02*Y82400D01*
Y84000D02*X87387Y84800D01*
X86000Y84000D02*X84613Y84800D01*
X86000Y79000D02*Y77400D01*
Y79000D02*X87387Y79800D01*
X86000Y79000D02*X84613Y79800D01*
X130500Y91500D02*Y89900D01*
Y91500D02*X131887Y92300D01*
X130500Y91500D02*X129113Y92300D01*
X135500Y91500D02*Y89900D01*
Y91500D02*X136887Y92300D01*
X135500Y91500D02*X134113Y92300D01*
X140500Y91500D02*Y89900D01*
Y91500D02*X141887Y92300D01*
X140500Y91500D02*X139113Y92300D01*
X130500Y45500D02*Y43900D01*
Y45500D02*X131887Y46300D01*
X130500Y45500D02*X129113Y46300D01*
X135500Y45500D02*Y43900D01*
Y45500D02*X136887Y46300D01*
X135500Y45500D02*X134113Y46300D01*
X140500Y45500D02*Y43900D01*
Y45500D02*X141887Y46300D01*
X140500Y45500D02*X139113Y46300D01*
X102500Y112000D02*Y110400D01*
Y112000D02*X103887Y112800D01*
X102500Y112000D02*X101113Y112800D01*
X76000Y112000D02*Y110400D01*
Y112000D02*X77387Y112800D01*
X76000Y112000D02*X74613Y112800D01*
X80000Y71000D02*Y69400D01*
Y71000D02*X81387Y71800D01*
X80000Y71000D02*X78613Y71800D01*
X110000Y77500D02*Y75900D01*
Y77500D02*X111387Y78300D01*
X110000Y77500D02*X108613Y78300D01*
X116000Y71000D02*Y69400D01*
Y71000D02*X117387Y71800D01*
X116000Y71000D02*X114613Y71800D01*
X15000Y216250D02*Y214650D01*
Y216250D02*X16387Y217050D01*
X15000Y216250D02*X13613Y217050D01*
X135000Y218500D02*X136500Y215500D01*
X138000Y218500D01*
X136500Y215500D02*Y212500D01*
X139800Y215800D02*X142050D01*
X139800Y212500D02*X142800D01*
X139800Y218500D02*Y212500D01*
Y218500D02*X142800D01*
X147600D02*X148350Y217750D01*
X145350Y218500D02*X147600D01*
X144600Y217750D02*X145350Y218500D01*
X144600Y217750D02*Y216250D01*
X145350Y215500D01*
X147600D01*
X148350Y214750D01*
Y213250D01*
X147600Y212500D02*X148350Y213250D01*
X145350Y212500D02*X147600D01*
X144600Y213250D02*X145350Y212500D01*
X98000Y217300D02*X99200Y218500D01*
Y212500D01*
X98000D02*X100250D01*
X102050Y217750D02*X102800Y218500D01*
X104300D01*
X105050Y217750D01*
X104300Y212500D02*X105050Y213250D01*
X102800Y212500D02*X104300D01*
X102050Y213250D02*X102800Y212500D01*
Y215800D02*X104300D01*
X105050Y217750D02*Y216550D01*
Y215050D02*Y213250D01*
Y215050D02*X104300Y215800D01*
X105050Y216550D02*X104300Y215800D01*
X45000Y213250D02*X45750Y212500D01*
X45000Y217750D02*Y213250D01*
Y217750D02*X45750Y218500D01*
X47250D01*
X48000Y217750D01*
Y213250D01*
X47250Y212500D02*X48000Y213250D01*
X45750Y212500D02*X47250D01*
X45000Y214000D02*X48000Y217000D01*
X49800Y212500D02*X50550D01*
X52350Y213250D02*X53100Y212500D01*
X52350Y217750D02*Y213250D01*
Y217750D02*X53100Y218500D01*
X54600D01*
X55350Y217750D01*
Y213250D01*
X54600Y212500D02*X55350Y213250D01*
X53100Y212500D02*X54600D01*
X52350Y214000D02*X55350Y217000D01*
X57150Y217750D02*X57900Y218500D01*
X60150D01*
X60900Y217750D01*
Y216250D01*
X57150Y212500D02*X60900Y216250D01*
X57150Y212500D02*X60900D01*
X62700Y213250D02*X63450Y212500D01*
X62700Y217750D02*Y213250D01*
Y217750D02*X63450Y218500D01*
X64950D01*
X65700Y217750D01*
Y213250D01*
X64950Y212500D02*X65700Y213250D01*
X63450Y212500D02*X64950D01*
X62700Y214000D02*X65700Y217000D01*
X3000Y233500D02*X3750Y232750D01*
X750Y233500D02*X3000D01*
X0Y232750D02*X750Y233500D01*
X0Y232750D02*Y231250D01*
X750Y230500D01*
X3000D01*
X3750Y229750D01*
Y228250D01*
X3000Y227500D02*X3750Y228250D01*
X750Y227500D02*X3000D01*
X0Y228250D02*X750Y227500D01*
X5550Y230500D02*Y228250D01*
X6300Y227500D01*
X8550Y230500D02*Y226000D01*
X7800Y225250D02*X8550Y226000D01*
X6300Y225250D02*X7800D01*
X5550Y226000D02*X6300Y225250D01*
Y227500D02*X7800D01*
X8550Y228250D01*
X11100Y229750D02*Y227500D01*
Y229750D02*X11850Y230500D01*
X12600D01*
X13350Y229750D01*
Y227500D01*
Y229750D02*X14100Y230500D01*
X14850D01*
X15600Y229750D01*
Y227500D01*
X10350Y230500D02*X11100Y229750D01*
X17400Y233500D02*Y227500D01*
Y228250D02*X18150Y227500D01*
X19650D01*
X20400Y228250D01*
Y229750D02*Y228250D01*
X19650Y230500D02*X20400Y229750D01*
X18150Y230500D02*X19650D01*
X17400Y229750D02*X18150Y230500D01*
X22200Y229750D02*Y228250D01*
Y229750D02*X22950Y230500D01*
X24450D01*
X25200Y229750D01*
Y228250D01*
X24450Y227500D02*X25200Y228250D01*
X22950Y227500D02*X24450D01*
X22200Y228250D02*X22950Y227500D01*
X27000Y233500D02*Y228250D01*
X27750Y227500D01*
X0Y224250D02*X29250D01*
X41750Y233500D02*Y227500D01*
X43700Y233500D02*X44750Y232450D01*
Y228550D01*
X43700Y227500D02*X44750Y228550D01*
X41000Y227500D02*X43700D01*
X41000Y233500D02*X43700D01*
G54D68*X46550Y232000D02*Y231850D01*
G54D67*Y229750D02*Y227500D01*
X50300Y230500D02*X51050Y229750D01*
X48800Y230500D02*X50300D01*
X48050Y229750D02*X48800Y230500D01*
X48050Y229750D02*Y228250D01*
X48800Y227500D01*
X51050Y230500D02*Y228250D01*
X51800Y227500D01*
X48800D02*X50300D01*
X51050Y228250D01*
X54350Y229750D02*Y227500D01*
Y229750D02*X55100Y230500D01*
X55850D01*
X56600Y229750D01*
Y227500D01*
Y229750D02*X57350Y230500D01*
X58100D01*
X58850Y229750D01*
Y227500D01*
X53600Y230500D02*X54350Y229750D01*
X60650Y227500D02*X61400D01*
X65900Y228250D02*X66650Y227500D01*
X65900Y232750D02*X66650Y233500D01*
X65900Y232750D02*Y228250D01*
X68450Y233500D02*X69950D01*
X69200D02*Y227500D01*
X68450D02*X69950D01*
X72500Y229750D02*Y227500D01*
Y229750D02*X73250Y230500D01*
X74000D01*
X74750Y229750D01*
Y227500D01*
X71750Y230500D02*X72500Y229750D01*
X77300Y230500D02*X79550D01*
X76550Y229750D02*X77300Y230500D01*
X76550Y229750D02*Y228250D01*
X77300Y227500D01*
X79550D01*
X81350Y233500D02*Y227500D01*
Y229750D02*X82100Y230500D01*
X83600D01*
X84350Y229750D01*
Y227500D01*
X86150Y233500D02*X86900Y232750D01*
Y228250D01*
X86150Y227500D02*X86900Y228250D01*
X41000Y224250D02*X88700D01*
X96050Y227500D02*X98000D01*
X95000Y228550D02*X96050Y227500D01*
X95000Y232450D02*Y228550D01*
Y232450D02*X96050Y233500D01*
X98000D01*
X99800Y229750D02*Y228250D01*
Y229750D02*X100550Y230500D01*
X102050D01*
X102800Y229750D01*
Y228250D01*
X102050Y227500D02*X102800Y228250D01*
X100550Y227500D02*X102050D01*
X99800Y228250D02*X100550Y227500D01*
X104600Y230500D02*Y228250D01*
X105350Y227500D01*
X106850D01*
X107600Y228250D01*
Y230500D02*Y228250D01*
X110150Y229750D02*Y227500D01*
Y229750D02*X110900Y230500D01*
X111650D01*
X112400Y229750D01*
Y227500D01*
X109400Y230500D02*X110150Y229750D01*
X114950Y233500D02*Y228250D01*
X115700Y227500D01*
X114200Y231250D02*X115700D01*
X95000Y224250D02*X117200D01*
X130750Y233500D02*Y227500D01*
X130000Y233500D02*X133000D01*
X133750Y232750D01*
Y231250D01*
X133000Y230500D02*X133750Y231250D01*
X130750Y230500D02*X133000D01*
X135550Y233500D02*Y228250D01*
X136300Y227500D01*
X140050Y230500D02*X140800Y229750D01*
X138550Y230500D02*X140050D01*
X137800Y229750D02*X138550Y230500D01*
X137800Y229750D02*Y228250D01*
X138550Y227500D01*
X140800Y230500D02*Y228250D01*
X141550Y227500D01*
X138550D02*X140050D01*
X140800Y228250D01*
X144100Y233500D02*Y228250D01*
X144850Y227500D01*
X143350Y231250D02*X144850D01*
X147100Y227500D02*X149350D01*
X146350Y228250D02*X147100Y227500D01*
X146350Y229750D02*Y228250D01*
Y229750D02*X147100Y230500D01*
X148600D01*
X149350Y229750D01*
X146350Y229000D02*X149350D01*
Y229750D02*Y229000D01*
X154150Y233500D02*Y227500D01*
X153400D02*X154150Y228250D01*
X151900Y227500D02*X153400D01*
X151150Y228250D02*X151900Y227500D01*
X151150Y229750D02*Y228250D01*
Y229750D02*X151900Y230500D01*
X153400D01*
X154150Y229750D01*
X157450Y230500D02*Y229750D01*
Y228250D02*Y227500D01*
X155950Y232750D02*Y232000D01*
Y232750D02*X156700Y233500D01*
X158200D01*
X158950Y232750D01*
Y232000D01*
X157450Y230500D02*X158950Y232000D01*
X130000Y224250D02*X160750D01*
X0Y248500D02*X3000D01*
X1500D02*Y242500D01*
X4800Y248500D02*Y242500D01*
Y244750D02*X5550Y245500D01*
X7050D01*
X7800Y244750D01*
Y242500D01*
X10350D02*X12600D01*
X9600Y243250D02*X10350Y242500D01*
X9600Y244750D02*Y243250D01*
Y244750D02*X10350Y245500D01*
X11850D01*
X12600Y244750D01*
X9600Y244000D02*X12600D01*
Y244750D02*Y244000D01*
X15150Y244750D02*Y242500D01*
Y244750D02*X15900Y245500D01*
X17400D01*
X14400D02*X15150Y244750D01*
X19950Y242500D02*X22200D01*
X19200Y243250D02*X19950Y242500D01*
X19200Y244750D02*Y243250D01*
Y244750D02*X19950Y245500D01*
X21450D01*
X22200Y244750D01*
X19200Y244000D02*X22200D01*
Y244750D02*Y244000D01*
X28950Y245500D02*X29700Y244750D01*
X27450Y245500D02*X28950D01*
X26700Y244750D02*X27450Y245500D01*
X26700Y244750D02*Y243250D01*
X27450Y242500D01*
X29700Y245500D02*Y243250D01*
X30450Y242500D01*
X27450D02*X28950D01*
X29700Y243250D01*
X33000Y244750D02*Y242500D01*
Y244750D02*X33750Y245500D01*
X35250D01*
X32250D02*X33000Y244750D01*
X37800Y242500D02*X40050D01*
X37050Y243250D02*X37800Y242500D01*
X37050Y244750D02*Y243250D01*
Y244750D02*X37800Y245500D01*
X39300D01*
X40050Y244750D01*
X37050Y244000D02*X40050D01*
Y244750D02*Y244000D01*
X44550Y244750D02*X47550Y248500D01*
X44550Y244750D02*X48300D01*
X47550Y248500D02*Y242500D01*
X55800Y248500D02*Y242500D01*
X55050D02*X55800Y243250D01*
X53550Y242500D02*X55050D01*
X52800Y243250D02*X53550Y242500D01*
X52800Y244750D02*Y243250D01*
Y244750D02*X53550Y245500D01*
X55050D01*
X55800Y244750D01*
G54D68*X57600Y247000D02*Y246850D01*
G54D67*Y244750D02*Y242500D01*
X59850Y247750D02*Y242500D01*
Y247750D02*X60600Y248500D01*
X61350D01*
X59100Y245500D02*X60600D01*
X63600Y247750D02*Y242500D01*
Y247750D02*X64350Y248500D01*
X65100D01*
X62850Y245500D02*X64350D01*
X67350Y242500D02*X69600D01*
X66600Y243250D02*X67350Y242500D01*
X66600Y244750D02*Y243250D01*
Y244750D02*X67350Y245500D01*
X68850D01*
X69600Y244750D01*
X66600Y244000D02*X69600D01*
Y244750D02*Y244000D01*
X72150Y244750D02*Y242500D01*
Y244750D02*X72900Y245500D01*
X74400D01*
X71400D02*X72150Y244750D01*
X76950Y242500D02*X79200D01*
X76200Y243250D02*X76950Y242500D01*
X76200Y244750D02*Y243250D01*
Y244750D02*X76950Y245500D01*
X78450D01*
X79200Y244750D01*
X76200Y244000D02*X79200D01*
Y244750D02*Y244000D01*
X81750Y244750D02*Y242500D01*
Y244750D02*X82500Y245500D01*
X83250D01*
X84000Y244750D01*
Y242500D01*
X81000Y245500D02*X81750Y244750D01*
X86550Y248500D02*Y243250D01*
X87300Y242500D01*
X85800Y246250D02*X87300D01*
X94500Y248500D02*Y242500D01*
X93750D02*X94500Y243250D01*
X92250Y242500D02*X93750D01*
X91500Y243250D02*X92250Y242500D01*
X91500Y244750D02*Y243250D01*
Y244750D02*X92250Y245500D01*
X93750D01*
X94500Y244750D01*
X97050D02*Y242500D01*
Y244750D02*X97800Y245500D01*
X99300D01*
X96300D02*X97050Y244750D01*
G54D68*X101100Y247000D02*Y246850D01*
G54D67*Y244750D02*Y242500D01*
X102600Y248500D02*Y243250D01*
X103350Y242500D01*
X104850Y248500D02*Y243250D01*
X105600Y242500D01*
X110550D02*X112800D01*
X113550Y243250D01*
X112800Y244000D02*X113550Y243250D01*
X110550Y244000D02*X112800D01*
X109800Y244750D02*X110550Y244000D01*
X109800Y244750D02*X110550Y245500D01*
X112800D01*
X113550Y244750D01*
X109800Y243250D02*X110550Y242500D01*
G54D68*X115350Y247000D02*Y246850D01*
G54D67*Y244750D02*Y242500D01*
X116850Y245500D02*X119850D01*
X116850Y242500D02*X119850Y245500D01*
X116850Y242500D02*X119850D01*
X122400D02*X124650D01*
X121650Y243250D02*X122400Y242500D01*
X121650Y244750D02*Y243250D01*
Y244750D02*X122400Y245500D01*
X123900D01*
X124650Y244750D01*
X121650Y244000D02*X124650D01*
Y244750D02*Y244000D01*
X127200Y242500D02*X129450D01*
X130200Y243250D01*
X129450Y244000D02*X130200Y243250D01*
X127200Y244000D02*X129450D01*
X126450Y244750D02*X127200Y244000D01*
X126450Y244750D02*X127200Y245500D01*
X129450D01*
X130200Y244750D01*
X126450Y243250D02*X127200Y242500D01*
X134700Y245500D02*Y243250D01*
X135450Y242500D01*
X136950D01*
X137700Y243250D01*
Y245500D02*Y243250D01*
X140250Y242500D02*X142500D01*
X143250Y243250D01*
X142500Y244000D02*X143250Y243250D01*
X140250Y244000D02*X142500D01*
X139500Y244750D02*X140250Y244000D01*
X139500Y244750D02*X140250Y245500D01*
X142500D01*
X143250Y244750D01*
X139500Y243250D02*X140250Y242500D01*
X145800D02*X148050D01*
X145050Y243250D02*X145800Y242500D01*
X145050Y244750D02*Y243250D01*
Y244750D02*X145800Y245500D01*
X147300D01*
X148050Y244750D01*
X145050Y244000D02*X148050D01*
Y244750D02*Y244000D01*
X152850Y248500D02*Y242500D01*
X152100D02*X152850Y243250D01*
X150600Y242500D02*X152100D01*
X149850Y243250D02*X150600Y242500D01*
X149850Y244750D02*Y243250D01*
Y244750D02*X150600Y245500D01*
X152100D01*
X152850Y244750D01*
G54D68*X157350Y247000D02*Y246850D01*
G54D67*Y244750D02*Y242500D01*
X159600Y244750D02*Y242500D01*
Y244750D02*X160350Y245500D01*
X161100D01*
X161850Y244750D01*
Y242500D01*
X158850Y245500D02*X159600Y244750D01*
X167100Y248500D02*Y243250D01*
X167850Y242500D01*
X166350Y246250D02*X167850D01*
X169350Y248500D02*Y242500D01*
Y244750D02*X170100Y245500D01*
X171600D01*
X172350Y244750D01*
Y242500D01*
G54D68*X174150Y247000D02*Y246850D01*
G54D67*Y244750D02*Y242500D01*
X176400D02*X178650D01*
X179400Y243250D01*
X178650Y244000D02*X179400Y243250D01*
X176400Y244000D02*X178650D01*
X175650Y244750D02*X176400Y244000D01*
X175650Y244750D02*X176400Y245500D01*
X178650D01*
X179400Y244750D01*
X175650Y243250D02*X176400Y242500D01*
X183900Y248500D02*Y243250D01*
X184650Y242500D01*
X188400Y245500D02*X189150Y244750D01*
X186900Y245500D02*X188400D01*
X186150Y244750D02*X186900Y245500D01*
X186150Y244750D02*Y243250D01*
X186900Y242500D01*
X189150Y245500D02*Y243250D01*
X189900Y242500D01*
X186900D02*X188400D01*
X189150Y243250D01*
X191700Y245500D02*Y243250D01*
X192450Y242500D01*
X194700Y245500D02*Y241000D01*
X193950Y240250D02*X194700Y241000D01*
X192450Y240250D02*X193950D01*
X191700Y241000D02*X192450Y240250D01*
Y242500D02*X193950D01*
X194700Y243250D01*
X196500Y244750D02*Y243250D01*
Y244750D02*X197250Y245500D01*
X198750D01*
X199500Y244750D01*
Y243250D01*
X198750Y242500D02*X199500Y243250D01*
X197250Y242500D02*X198750D01*
X196500Y243250D02*X197250Y242500D01*
X201300Y245500D02*Y243250D01*
X202050Y242500D01*
X203550D01*
X204300Y243250D01*
Y245500D02*Y243250D01*
X206850Y248500D02*Y243250D01*
X207600Y242500D01*
X206100Y246250D02*X207600D01*
X209100Y241000D02*X210600Y242500D01*
X215100Y247750D02*X215850Y248500D01*
X217350D01*
X218100Y247750D01*
X217350Y242500D02*X218100Y243250D01*
X215850Y242500D02*X217350D01*
X215100Y243250D02*X215850Y242500D01*
Y245800D02*X217350D01*
X218100Y247750D02*Y246550D01*
Y245050D02*Y243250D01*
Y245050D02*X217350Y245800D01*
X218100Y246550D02*X217350Y245800D01*
X219900Y247300D02*X221100Y248500D01*
Y242500D01*
X219900D02*X222150D01*
X226650Y248500D02*Y242500D01*
Y244750D02*X227400Y245500D01*
X228900D01*
X229650Y244750D01*
Y242500D01*
X231450Y244750D02*Y243250D01*
Y244750D02*X232200Y245500D01*
X233700D01*
X234450Y244750D01*
Y243250D01*
X233700Y242500D02*X234450Y243250D01*
X232200Y242500D02*X233700D01*
X231450Y243250D02*X232200Y242500D01*
X236250Y248500D02*Y243250D01*
X237000Y242500D01*
X239250D02*X241500D01*
X238500Y243250D02*X239250Y242500D01*
X238500Y244750D02*Y243250D01*
Y244750D02*X239250Y245500D01*
X240750D01*
X241500Y244750D01*
X238500Y244000D02*X241500D01*
Y244750D02*Y244000D01*
X244050Y242500D02*X246300D01*
X247050Y243250D01*
X246300Y244000D02*X247050Y243250D01*
X244050Y244000D02*X246300D01*
X243300Y244750D02*X244050Y244000D01*
X243300Y244750D02*X244050Y245500D01*
X246300D01*
X247050Y244750D01*
X243300Y243250D02*X244050Y242500D01*
X252300Y248500D02*Y243250D01*
X253050Y242500D01*
X251550Y246250D02*X253050D01*
X254550Y244750D02*Y243250D01*
Y244750D02*X255300Y245500D01*
X256800D01*
X257550Y244750D01*
Y243250D01*
X256800Y242500D02*X257550Y243250D01*
X255300Y242500D02*X256800D01*
X254550Y243250D02*X255300Y242500D01*
X260100Y248500D02*Y243250D01*
X260850Y242500D01*
X259350Y246250D02*X260850D01*
X264600Y245500D02*X265350Y244750D01*
X263100Y245500D02*X264600D01*
X262350Y244750D02*X263100Y245500D01*
X262350Y244750D02*Y243250D01*
X263100Y242500D01*
X265350Y245500D02*Y243250D01*
X266100Y242500D01*
X263100D02*X264600D01*
X265350Y243250D01*
X267900Y248500D02*Y243250D01*
X268650Y242500D01*
G54D69*X0Y0D02*X160000D01*
Y160000D01*
X0D01*
Y0D01*
G54D67*Y-9500D02*X3000D01*
X3750Y-8750D01*
Y-6950D02*Y-8750D01*
X3000Y-6200D02*X3750Y-6950D01*
X750Y-6200D02*X3000D01*
X750Y-3500D02*Y-9500D01*
X0Y-3500D02*X3000D01*
X3750Y-4250D01*
Y-5450D01*
X3000Y-6200D02*X3750Y-5450D01*
X5550Y-7250D02*Y-8750D01*
Y-7250D02*X6300Y-6500D01*
X7800D01*
X8550Y-7250D01*
Y-8750D01*
X7800Y-9500D02*X8550Y-8750D01*
X6300Y-9500D02*X7800D01*
X5550Y-8750D02*X6300Y-9500D01*
X12600Y-6500D02*X13350Y-7250D01*
X11100Y-6500D02*X12600D01*
X10350Y-7250D02*X11100Y-6500D01*
X10350Y-7250D02*Y-8750D01*
X11100Y-9500D01*
X13350Y-6500D02*Y-8750D01*
X14100Y-9500D01*
X11100D02*X12600D01*
X13350Y-8750D01*
X16650Y-7250D02*Y-9500D01*
Y-7250D02*X17400Y-6500D01*
X18900D01*
X15900D02*X16650Y-7250D01*
X23700Y-3500D02*Y-9500D01*
X22950D02*X23700Y-8750D01*
X21450Y-9500D02*X22950D01*
X20700Y-8750D02*X21450Y-9500D01*
X20700Y-7250D02*Y-8750D01*
Y-7250D02*X21450Y-6500D01*
X22950D01*
X23700Y-7250D01*
X28200D02*Y-8750D01*
Y-7250D02*X28950Y-6500D01*
X30450D01*
X31200Y-7250D01*
Y-8750D01*
X30450Y-9500D02*X31200Y-8750D01*
X28950Y-9500D02*X30450D01*
X28200Y-8750D02*X28950Y-9500D01*
X33000Y-6500D02*Y-8750D01*
X33750Y-9500D01*
X35250D01*
X36000Y-8750D01*
Y-6500D02*Y-8750D01*
X38550Y-3500D02*Y-8750D01*
X39300Y-9500D01*
X37800Y-5750D02*X39300D01*
X40800Y-3500D02*Y-8750D01*
X41550Y-9500D01*
G54D68*X43050Y-5000D02*Y-5150D01*
G54D67*Y-7250D02*Y-9500D01*
X45300Y-7250D02*Y-9500D01*
Y-7250D02*X46050Y-6500D01*
X46800D01*
X47550Y-7250D01*
Y-9500D01*
X44550Y-6500D02*X45300Y-7250D01*
X50100Y-9500D02*X52350D01*
X49350Y-8750D02*X50100Y-9500D01*
X49350Y-7250D02*Y-8750D01*
Y-7250D02*X50100Y-6500D01*
X51600D01*
X52350Y-7250D01*
X49350Y-8000D02*X52350D01*
Y-7250D02*Y-8000D01*
G54D68*X56850Y-5000D02*Y-5150D01*
G54D67*Y-7250D02*Y-9500D01*
X59100D02*X61350D01*
X62100Y-8750D01*
X61350Y-8000D02*X62100Y-8750D01*
X59100Y-8000D02*X61350D01*
X58350Y-7250D02*X59100Y-8000D01*
X58350Y-7250D02*X59100Y-6500D01*
X61350D01*
X62100Y-7250D01*
X58350Y-8750D02*X59100Y-9500D01*
X67350Y-3500D02*Y-8750D01*
X68100Y-9500D01*
X66600Y-5750D02*X68100D01*
X69600Y-3500D02*Y-9500D01*
Y-7250D02*X70350Y-6500D01*
X71850D01*
X72600Y-7250D01*
Y-9500D01*
X75150D02*X77400D01*
X74400Y-8750D02*X75150Y-9500D01*
X74400Y-7250D02*Y-8750D01*
Y-7250D02*X75150Y-6500D01*
X76650D01*
X77400Y-7250D01*
X74400Y-8000D02*X77400D01*
Y-7250D02*Y-8000D01*
X82650Y-6500D02*X84900D01*
X81900Y-7250D02*X82650Y-6500D01*
X81900Y-7250D02*Y-8750D01*
X82650Y-9500D01*
X84900D01*
X87450D02*X89700D01*
X86700Y-8750D02*X87450Y-9500D01*
X86700Y-7250D02*Y-8750D01*
Y-7250D02*X87450Y-6500D01*
X88950D01*
X89700Y-7250D01*
X86700Y-8000D02*X89700D01*
Y-7250D02*Y-8000D01*
X92250Y-7250D02*Y-9500D01*
Y-7250D02*X93000Y-6500D01*
X93750D01*
X94500Y-7250D01*
Y-9500D01*
X91500Y-6500D02*X92250Y-7250D01*
X97050Y-3500D02*Y-8750D01*
X97800Y-9500D01*
X96300Y-5750D02*X97800D01*
X100050Y-9500D02*X102300D01*
X99300Y-8750D02*X100050Y-9500D01*
X99300Y-7250D02*Y-8750D01*
Y-7250D02*X100050Y-6500D01*
X101550D01*
X102300Y-7250D01*
X99300Y-8000D02*X102300D01*
Y-7250D02*Y-8000D01*
X104850Y-7250D02*Y-9500D01*
Y-7250D02*X105600Y-6500D01*
X107100D01*
X104100D02*X104850Y-7250D01*
X108900Y-3500D02*Y-8750D01*
X109650Y-9500D01*
G54D68*X111150Y-5000D02*Y-5150D01*
G54D67*Y-7250D02*Y-9500D01*
X113400Y-7250D02*Y-9500D01*
Y-7250D02*X114150Y-6500D01*
X114900D01*
X115650Y-7250D01*
Y-9500D01*
X112650Y-6500D02*X113400Y-7250D01*
X118200Y-9500D02*X120450D01*
X117450Y-8750D02*X118200Y-9500D01*
X117450Y-7250D02*Y-8750D01*
Y-7250D02*X118200Y-6500D01*
X119700D01*
X120450Y-7250D01*
X117450Y-8000D02*X120450D01*
Y-7250D02*Y-8000D01*
X124950Y-7250D02*Y-8750D01*
Y-7250D02*X125700Y-6500D01*
X127200D01*
X127950Y-7250D01*
Y-8750D01*
X127200Y-9500D02*X127950Y-8750D01*
X125700Y-9500D02*X127200D01*
X124950Y-8750D02*X125700Y-9500D01*
X130500Y-4250D02*Y-9500D01*
Y-4250D02*X131250Y-3500D01*
X132000D01*
X129750Y-6500D02*X131250D01*
X136950Y-3500D02*Y-8750D01*
X137700Y-9500D01*
X136200Y-5750D02*X137700D01*
X139200Y-3500D02*Y-9500D01*
Y-7250D02*X139950Y-6500D01*
X141450D01*
X142200Y-7250D01*
Y-9500D01*
G54D68*X144000Y-5000D02*Y-5150D01*
G54D67*Y-7250D02*Y-9500D01*
X146250D02*X148500D01*
X149250Y-8750D01*
X148500Y-8000D02*X149250Y-8750D01*
X146250Y-8000D02*X148500D01*
X145500Y-7250D02*X146250Y-8000D01*
X145500Y-7250D02*X146250Y-6500D01*
X148500D01*
X149250Y-7250D01*
X145500Y-8750D02*X146250Y-9500D01*
X154500Y-7250D02*Y-11750D01*
X153750Y-6500D02*X154500Y-7250D01*
X155250Y-6500D01*
X156750D01*
X157500Y-7250D01*
Y-8750D01*
X156750Y-9500D02*X157500Y-8750D01*
X155250Y-9500D02*X156750D01*
X154500Y-8750D02*X155250Y-9500D01*
X161550Y-6500D02*X162300Y-7250D01*
X160050Y-6500D02*X161550D01*
X159300Y-7250D02*X160050Y-6500D01*
X159300Y-7250D02*Y-8750D01*
X160050Y-9500D01*
X162300Y-6500D02*Y-8750D01*
X163050Y-9500D01*
X160050D02*X161550D01*
X162300Y-8750D01*
X165600Y-3500D02*Y-8750D01*
X166350Y-9500D01*
X164850Y-5750D02*X166350D01*
X167850Y-3500D02*Y-9500D01*
Y-7250D02*X168600Y-6500D01*
X170100D01*
X170850Y-7250D01*
Y-9500D01*
X200750Y188500D02*Y182500D01*
X202700Y188500D02*X203750Y187450D01*
Y183550D01*
X202700Y182500D02*X203750Y183550D01*
X200000Y182500D02*X202700D01*
X200000Y188500D02*X202700D01*
X207800Y185500D02*X208550Y184750D01*
X206300Y185500D02*X207800D01*
X205550Y184750D02*X206300Y185500D01*
X205550Y184750D02*Y183250D01*
X206300Y182500D01*
X208550Y185500D02*Y183250D01*
X209300Y182500D01*
X206300D02*X207800D01*
X208550Y183250D01*
X211850Y188500D02*Y183250D01*
X212600Y182500D01*
X211100Y186250D02*X212600D01*
X214850Y182500D02*X217100D01*
X214100Y183250D02*X214850Y182500D01*
X214100Y184750D02*Y183250D01*
Y184750D02*X214850Y185500D01*
X216350D01*
X217100Y184750D01*
X214100Y184000D02*X217100D01*
Y184750D02*Y184000D01*
X218900Y186250D02*X219650D01*
X218900Y184750D02*X219650D01*
X224150Y188500D02*X227150D01*
X225650D02*Y182500D01*
X228950Y185500D02*Y183250D01*
X229700Y182500D01*
X231200D01*
X231950Y183250D01*
Y185500D02*Y183250D01*
X234500Y182500D02*X236750D01*
X233750Y183250D02*X234500Y182500D01*
X233750Y184750D02*Y183250D01*
Y184750D02*X234500Y185500D01*
X236000D01*
X236750Y184750D01*
X233750Y184000D02*X236750D01*
Y184750D02*Y184000D01*
X241250Y187750D02*X242000Y188500D01*
X244250D01*
X245000Y187750D01*
Y186250D01*
X241250Y182500D02*X245000Y186250D01*
X241250Y182500D02*X245000D01*
X249050Y188500D02*X249800Y187750D01*
X247550Y188500D02*X249050D01*
X246800Y187750D02*X247550Y188500D01*
X246800Y187750D02*Y183250D01*
X247550Y182500D01*
X249050Y185800D02*X249800Y185050D01*
X246800Y185800D02*X249050D01*
X247550Y182500D02*X249050D01*
X249800Y183250D01*
Y185050D02*Y183250D01*
X254300Y188500D02*Y182500D01*
Y188500D02*X257300D01*
X254300Y185800D02*X256550D01*
X259850Y182500D02*X262100D01*
X259100Y183250D02*X259850Y182500D01*
X259100Y184750D02*Y183250D01*
Y184750D02*X259850Y185500D01*
X261350D01*
X262100Y184750D01*
X259100Y184000D02*X262100D01*
Y184750D02*Y184000D01*
X263900Y188500D02*Y182500D01*
Y183250D02*X264650Y182500D01*
X266150D01*
X266900Y183250D01*
Y184750D02*Y183250D01*
X266150Y185500D02*X266900Y184750D01*
X264650Y185500D02*X266150D01*
X263900Y184750D02*X264650Y185500D01*
X271400Y187750D02*X272150Y188500D01*
X274400D01*
X275150Y187750D01*
Y186250D01*
X271400Y182500D02*X275150Y186250D01*
X271400Y182500D02*X275150D01*
X276950Y183250D02*X277700Y182500D01*
X276950Y187750D02*Y183250D01*
Y187750D02*X277700Y188500D01*
X279200D01*
X279950Y187750D01*
Y183250D01*
X279200Y182500D02*X279950Y183250D01*
X277700Y182500D02*X279200D01*
X276950Y184000D02*X279950Y187000D01*
X281750Y187300D02*X282950Y188500D01*
Y182500D01*
X281750D02*X284000D01*
X286550D02*X288800Y185500D01*
Y187750D02*Y185500D01*
X288050Y188500D02*X288800Y187750D01*
X286550Y188500D02*X288050D01*
X285800Y187750D02*X286550Y188500D01*
X285800Y187750D02*Y186250D01*
X286550Y185500D01*
X288800D01*
X293300Y183250D02*X294050Y182500D01*
X293300Y187750D02*Y183250D01*
Y187750D02*X294050Y188500D01*
X295550D01*
X296300Y187750D01*
Y183250D01*
X295550Y182500D02*X296300Y183250D01*
X294050Y182500D02*X295550D01*
X293300Y184000D02*X296300Y187000D01*
X298100Y184750D02*X301100Y188500D01*
X298100Y184750D02*X301850D01*
X301100Y188500D02*Y182500D01*
X303650Y186250D02*X304400D01*
X303650Y184750D02*X304400D01*
X306200Y187750D02*X306950Y188500D01*
X308450D01*
X309200Y187750D01*
X308450Y182500D02*X309200Y183250D01*
X306950Y182500D02*X308450D01*
X306200Y183250D02*X306950Y182500D01*
Y185800D02*X308450D01*
X309200Y187750D02*Y186550D01*
Y185050D02*Y183250D01*
Y185050D02*X308450Y185800D01*
X309200Y186550D02*X308450Y185800D01*
X311750Y182500D02*X314750Y188500D01*
X311000D02*X314750D01*
X316550Y186250D02*X317300D01*
X316550Y184750D02*X317300D01*
X319100D02*X322100Y188500D01*
X319100Y184750D02*X322850D01*
X322100Y188500D02*Y182500D01*
X324650Y187300D02*X325850Y188500D01*
Y182500D01*
X324650D02*X326900D01*
X331400Y187000D02*Y182500D01*
Y187000D02*X332450Y188500D01*
X334100D01*
X335150Y187000D01*
Y182500D01*
X331400Y185500D02*X335150D01*
X336950Y188500D02*Y182500D01*
Y188500D02*X339200Y185500D01*
X341450Y188500D01*
Y182500D01*
X348950Y188500D02*X349700Y187750D01*
X346700Y188500D02*X348950D01*
X345950Y187750D02*X346700Y188500D01*
X345950Y187750D02*Y183250D01*
X346700Y182500D01*
X348950D01*
X349700Y183250D01*
Y184750D02*Y183250D01*
X348950Y185500D02*X349700Y184750D01*
X347450Y185500D02*X348950D01*
X351500Y188500D02*Y182500D01*
Y188500D02*X353750Y185500D01*
X356000Y188500D01*
Y182500D01*
X357800Y188500D02*X360800D01*
X359300D02*Y182500D01*
X365300Y188500D02*Y183250D01*
X366050Y182500D01*
X367550D01*
X368300Y183250D01*
Y188500D02*Y183250D01*
X370100Y188500D02*X373100D01*
X371600D02*Y182500D01*
X375950D02*X377900D01*
X374900Y183550D02*X375950Y182500D01*
X374900Y187450D02*Y183550D01*
Y187450D02*X375950Y188500D01*
X377900D01*
X200000Y202000D02*Y197500D01*
Y202000D02*X201050Y203500D01*
X202700D01*
X203750Y202000D01*
Y197500D01*
X200000Y200500D02*X203750D01*
X205550D02*Y198250D01*
X206300Y197500D01*
X207800D01*
X208550Y198250D01*
Y200500D02*Y198250D01*
X211100Y203500D02*Y198250D01*
X211850Y197500D01*
X210350Y201250D02*X211850D01*
X213350Y203500D02*Y197500D01*
Y199750D02*X214100Y200500D01*
X215600D01*
X216350Y199750D01*
Y197500D01*
X218150Y199750D02*Y198250D01*
Y199750D02*X218900Y200500D01*
X220400D01*
X221150Y199750D01*
Y198250D01*
X220400Y197500D02*X221150Y198250D01*
X218900Y197500D02*X220400D01*
X218150Y198250D02*X218900Y197500D01*
X223700Y199750D02*Y197500D01*
Y199750D02*X224450Y200500D01*
X225950D01*
X222950D02*X223700Y199750D01*
X227750Y201250D02*X228500D01*
X227750Y199750D02*X228500D01*
X233000Y203500D02*Y197500D01*
Y203500D02*X235250Y200500D01*
X237500Y203500D01*
Y197500D01*
G54D68*X239300Y202000D02*Y201850D01*
G54D67*Y199750D02*Y197500D01*
X241550Y200500D02*X243800D01*
X240800Y199750D02*X241550Y200500D01*
X240800Y199750D02*Y198250D01*
X241550Y197500D01*
X243800D01*
X245600Y203500D02*Y197500D01*
Y199750D02*X246350Y200500D01*
X247850D01*
X248600Y199750D01*
Y197500D01*
X252650Y200500D02*X253400Y199750D01*
X251150Y200500D02*X252650D01*
X250400Y199750D02*X251150Y200500D01*
X250400Y199750D02*Y198250D01*
X251150Y197500D01*
X253400Y200500D02*Y198250D01*
X254150Y197500D01*
X251150D02*X252650D01*
X253400Y198250D01*
X256700Y197500D02*X258950D01*
X255950Y198250D02*X256700Y197500D01*
X255950Y199750D02*Y198250D01*
Y199750D02*X256700Y200500D01*
X258200D01*
X258950Y199750D01*
X255950Y199000D02*X258950D01*
Y199750D02*Y199000D01*
X260750Y203500D02*Y198250D01*
X261500Y197500D01*
X266450Y203500D02*Y197500D01*
X265700Y203500D02*X268700D01*
X269450Y202750D01*
Y201250D01*
X268700Y200500D02*X269450Y201250D01*
X266450Y200500D02*X268700D01*
X272000Y197500D02*X274250D01*
X271250Y198250D02*X272000Y197500D01*
X271250Y199750D02*Y198250D01*
Y199750D02*X272000Y200500D01*
X273500D01*
X274250Y199750D01*
X271250Y199000D02*X274250D01*
Y199750D02*Y199000D01*
X276800Y203500D02*Y198250D01*
X277550Y197500D01*
X276050Y201250D02*X277550D01*
X279800Y197500D02*X282050D01*
X279050Y198250D02*X279800Y197500D01*
X279050Y199750D02*Y198250D01*
Y199750D02*X279800Y200500D01*
X281300D01*
X282050Y199750D01*
X279050Y199000D02*X282050D01*
Y199750D02*Y199000D01*
X284600Y199750D02*Y197500D01*
Y199750D02*X285350Y200500D01*
X286850D01*
X283850D02*X284600Y199750D01*
X289400Y197500D02*X291650D01*
X292400Y198250D01*
X291650Y199000D02*X292400Y198250D01*
X289400Y199000D02*X291650D01*
X288650Y199750D02*X289400Y199000D01*
X288650Y199750D02*X289400Y200500D01*
X291650D01*
X292400Y199750D01*
X288650Y198250D02*X289400Y197500D01*
X294950D02*X297200D01*
X294200Y198250D02*X294950Y197500D01*
X294200Y199750D02*Y198250D01*
Y199750D02*X294950Y200500D01*
X296450D01*
X297200Y199750D01*
X294200Y199000D02*X297200D01*
Y199750D02*Y199000D01*
X299750Y199750D02*Y197500D01*
Y199750D02*X300500Y200500D01*
X301250D01*
X302000Y199750D01*
Y197500D01*
X299000Y200500D02*X299750Y199750D01*
X200000Y218500D02*X203000D01*
X201500D02*Y212500D01*
G54D68*X204800Y217000D02*Y216850D01*
G54D67*Y214750D02*Y212500D01*
X207050Y218500D02*Y213250D01*
X207800Y212500D01*
X206300Y216250D02*X207800D01*
X209300Y218500D02*Y213250D01*
X210050Y212500D01*
X212300D02*X214550D01*
X211550Y213250D02*X212300Y212500D01*
X211550Y214750D02*Y213250D01*
Y214750D02*X212300Y215500D01*
X213800D01*
X214550Y214750D01*
X211550Y214000D02*X214550D01*
Y214750D02*Y214000D01*
X216350Y216250D02*X217100D01*
X216350Y214750D02*X217100D01*
X221600Y213250D02*X222350Y212500D01*
X221600Y217750D02*X222350Y218500D01*
X221600Y217750D02*Y213250D01*
X224150Y215500D02*Y213250D01*
X224900Y212500D01*
X226400D01*
X227150Y213250D01*
Y215500D02*Y213250D01*
X229700Y214750D02*Y212500D01*
Y214750D02*X230450Y215500D01*
X231200D01*
X231950Y214750D01*
Y212500D01*
X228950Y215500D02*X229700Y214750D01*
X233750Y218500D02*Y212500D01*
Y214750D02*X236000Y212500D01*
X233750Y214750D02*X235250Y216250D01*
X238550Y214750D02*Y212500D01*
Y214750D02*X239300Y215500D01*
X240050D01*
X240800Y214750D01*
Y212500D01*
X237800Y215500D02*X238550Y214750D01*
X242600D02*Y213250D01*
Y214750D02*X243350Y215500D01*
X244850D01*
X245600Y214750D01*
Y213250D01*
X244850Y212500D02*X245600Y213250D01*
X243350Y212500D02*X244850D01*
X242600Y213250D02*X243350Y212500D01*
X247400Y215500D02*Y213250D01*
X248150Y212500D01*
X248900D01*
X249650Y213250D01*
Y215500D02*Y213250D01*
X250400Y212500D01*
X251150D01*
X251900Y213250D01*
Y215500D02*Y213250D01*
X254450Y214750D02*Y212500D01*
Y214750D02*X255200Y215500D01*
X255950D01*
X256700Y214750D01*
Y212500D01*
X253700Y215500D02*X254450Y214750D01*
X258500Y218500D02*X259250Y217750D01*
Y213250D01*
X258500Y212500D02*X259250Y213250D01*
X263750Y215500D02*X266750D01*
X271250Y218500D02*Y212500D01*
Y218500D02*X274250D01*
X271250Y215800D02*X273500D01*
X278300Y215500D02*X279050Y214750D01*
X276800Y215500D02*X278300D01*
X276050Y214750D02*X276800Y215500D01*
X276050Y214750D02*Y213250D01*
X276800Y212500D01*
X279050Y215500D02*Y213250D01*
X279800Y212500D01*
X276800D02*X278300D01*
X279050Y213250D01*
X281600Y218500D02*Y212500D01*
Y213250D02*X282350Y212500D01*
X283850D01*
X284600Y213250D01*
Y214750D02*Y213250D01*
X283850Y215500D02*X284600Y214750D01*
X282350Y215500D02*X283850D01*
X281600Y214750D02*X282350Y215500D01*
X287150Y214750D02*Y212500D01*
Y214750D02*X287900Y215500D01*
X289400D01*
X286400D02*X287150Y214750D01*
G54D68*X291200Y217000D02*Y216850D01*
G54D67*Y214750D02*Y212500D01*
X293450Y215500D02*X295700D01*
X292700Y214750D02*X293450Y215500D01*
X292700Y214750D02*Y213250D01*
X293450Y212500D01*
X295700D01*
X299750Y215500D02*X300500Y214750D01*
X298250Y215500D02*X299750D01*
X297500Y214750D02*X298250Y215500D01*
X297500Y214750D02*Y213250D01*
X298250Y212500D01*
X300500Y215500D02*Y213250D01*
X301250Y212500D01*
X298250D02*X299750D01*
X300500Y213250D01*
X303800Y218500D02*Y213250D01*
X304550Y212500D01*
X303050Y216250D02*X304550D01*
G54D68*X306050Y217000D02*Y216850D01*
G54D67*Y214750D02*Y212500D01*
X307550Y214750D02*Y213250D01*
Y214750D02*X308300Y215500D01*
X309800D01*
X310550Y214750D01*
Y213250D01*
X309800Y212500D02*X310550Y213250D01*
X308300Y212500D02*X309800D01*
X307550Y213250D02*X308300Y212500D01*
X313100Y214750D02*Y212500D01*
Y214750D02*X313850Y215500D01*
X314600D01*
X315350Y214750D01*
Y212500D01*
X312350Y215500D02*X313100Y214750D01*
X320600Y218500D02*Y212500D01*
X322550Y218500D02*X323600Y217450D01*
Y213550D01*
X322550Y212500D02*X323600Y213550D01*
X319850Y212500D02*X322550D01*
X319850Y218500D02*X322550D01*
X326150Y214750D02*Y212500D01*
Y214750D02*X326900Y215500D01*
X328400D01*
X325400D02*X326150Y214750D01*
X332450Y215500D02*X333200Y214750D01*
X330950Y215500D02*X332450D01*
X330200Y214750D02*X330950Y215500D01*
X330200Y214750D02*Y213250D01*
X330950Y212500D01*
X333200Y215500D02*Y213250D01*
X333950Y212500D01*
X330950D02*X332450D01*
X333200Y213250D01*
X335750Y215500D02*Y213250D01*
X336500Y212500D01*
X337250D01*
X338000Y213250D01*
Y215500D02*Y213250D01*
X338750Y212500D01*
X339500D01*
X340250Y213250D01*
Y215500D02*Y213250D01*
G54D68*X342050Y217000D02*Y216850D01*
G54D67*Y214750D02*Y212500D01*
X344300Y214750D02*Y212500D01*
Y214750D02*X345050Y215500D01*
X345800D01*
X346550Y214750D01*
Y212500D01*
X343550Y215500D02*X344300Y214750D01*
X350600Y215500D02*X351350Y214750D01*
X349100Y215500D02*X350600D01*
X348350Y214750D02*X349100Y215500D01*
X348350Y214750D02*Y213250D01*
X349100Y212500D01*
X350600D01*
X351350Y213250D01*
X348350Y211000D02*X349100Y210250D01*
X350600D01*
X351350Y211000D01*
Y215500D02*Y211000D01*
M02*
